{"glyphs":{"0":{"ha":717,"x_min":0,"x_max":717,"o":"m 358 1013 q 497 973 432 1013 q 611 865 563 933 q 688 703 660 796 q 717 507 717 611 q 688 311 717 403 q 611 151 660 219 q 497 42 563 82 q 358 3 432 3 q 218 42 283 3 q 104 151 153 82 q 28 311 56 219 q 0 507 0 403 q 28 703 0 611 q 104 865 56 796 q 218 973 153 933 q 358 1013 283 1013 m 358 35 q 447 72 406 35 q 519 174 488 110 q 568 324 550 238 q 586 507 586 410 q 568 691 586 604 q 519 842 550 778 q 447 943 488 906 q 358 981 406 981 q 269 943 311 981 q 197 842 228 906 q 147 691 165 778 q 129 507 129 604 q 147 324 129 410 q 197 174 165 238 q 269 72 228 110 q 358 35 311 35 z "},"1":{"ha":304,"x_min":0,"x_max":304,"o":"m 304 264 l 304 3 l 175 3 l 174 3 l 174 35 l 175 35 l 175 892 l 24 740 l 0 764 l 249 1013 l 272 1013 l 296 1013 l 304 1013 l 304 264 l 304 264 z "},"2":{"ha":535,"x_min":0,"x_max":535,"o":"m 535 100 l 521 3 l 489 3 l 0 3 l 0 100 l 260 393 q 341 518 314 468 q 379 610 368 568 q 390 692 390 651 q 390 785 390 732 q 388 829 390 797 q 374 894 386 861 q 335 954 361 928 q 260 981 308 981 q 160 953 199 981 q 101 887 122 926 q 73 801 81 847 q 65 719 65 756 l 32 719 q 49 848 32 793 q 97 940 67 903 q 169 994 128 976 q 260 1013 211 1013 q 361 994 314 1013 q 444 943 408 976 q 500 861 479 910 q 521 751 521 813 q 514 647 521 697 q 489 551 507 597 q 440 458 471 504 q 360 363 408 411 l 65 100 l 260 100 l 392 100 l 535 100 z "},"3":{"ha":567,"x_min":0,"x_max":567,"o":"m 0 231 l 33 231 q 65 163 46 194 q 110 107 83 131 q 168 69 136 83 q 238 56 200 56 q 324 72 286 56 q 390 117 363 89 q 431 181 417 144 q 446 254 446 217 q 423 353 446 308 q 364 433 400 399 q 283 490 328 468 q 196 524 239 513 l 196 557 q 268 580 229 563 q 340 624 307 597 q 395 685 374 650 q 417 761 417 719 q 378 876 417 831 q 272 922 339 922 q 141 885 193 922 q 65 785 89 847 l 33 785 q 62 863 40 822 q 118 936 83 903 q 201 991 153 969 q 310 1013 249 1013 q 408 993 368 1013 q 472 945 447 974 q 508 884 497 917 q 519 824 519 851 q 505 738 519 776 q 467 669 490 700 q 416 615 444 639 q 360 574 388 592 q 433 542 396 565 q 499 486 469 519 q 548 410 529 453 q 567 321 567 368 q 538 193 567 251 q 461 92 510 135 q 349 26 413 50 q 213 3 285 3 q 109 33 150 3 q 44 101 68 63 q 10 178 19 140 q 0 231 0 215 z "},"4":{"ha":586,"x_min":0,"x_max":586,"o":"m 586 426 l 586 296 l 521 296 l 521 3 l 392 3 l 392 296 l 29 296 l 0 296 l 0 303 l 0 310 l 460 1013 l 496 1013 l 499 1013 l 521 1013 l 521 426 l 586 426 m 115 426 l 392 426 l 392 849 l 115 426 z "},"5":{"ha":568,"x_min":0,"x_max":568,"o":"m 147 621 q 335 592 256 621 q 467 519 415 564 q 543 415 518 474 q 568 296 568 357 q 540 153 568 210 q 465 64 511 97 q 360 17 418 31 q 242 3 301 3 q 133 33 179 3 q 58 101 88 63 q 15 178 29 140 q 0 231 0 215 l 33 231 q 65 163 46 194 q 110 107 83 131 q 168 69 136 83 q 238 56 200 56 q 324 74 286 56 q 386 122 361 92 q 424 189 411 151 q 438 264 438 226 q 422 376 438 329 q 378 458 406 424 q 317 514 351 492 q 247 550 283 536 q 176 573 211 564 q 111 589 140 582 l 144 978 l 144 981 l 400 981 l 535 981 l 535 882 l 176 882 l 147 621 l 147 621 z "},"6":{"ha":521,"x_min":0,"x_max":521,"o":"m 131 503 q 158 539 140 524 q 199 564 174 553 q 261 575 224 575 q 363 556 315 575 q 445 499 410 536 q 501 408 481 461 q 521 289 521 356 q 501 169 521 222 q 445 78 481 115 q 363 22 410 42 q 261 3 315 3 q 159 25 207 3 q 76 86 111 47 q 20 177 40 125 q 0 289 0 229 l 0 432 q 36 718 0 606 q 134 896 72 831 q 278 987 196 961 q 456 1013 361 1013 l 456 981 q 329 957 389 981 q 226 881 269 933 q 156 744 182 828 q 131 539 131 660 l 131 503 m 131 182 q 141 126 131 153 q 169 81 151 100 q 210 50 186 61 q 261 39 233 39 q 312 53 288 39 q 353 89 336 67 q 381 140 371 111 q 392 199 392 169 l 392 361 q 353 479 392 435 q 261 524 315 524 q 169 490 207 524 q 131 396 131 456 l 131 182 z "},"7":{"ha":504,"x_min":0,"x_max":504,"o":"m 504 981 l 504 882 l 410 675 q 346 522 375 600 q 292 365 317 444 l 178 3 l 47 3 l 144 261 q 393 760 242 522 l 471 882 l 243 882 l 119 882 l 0 882 l 11 981 l 504 981 z "},"8":{"ha":517,"x_min":0,"x_max":517,"o":"m 507 806 q 494 724 507 758 q 456 662 481 690 q 398 608 432 633 q 321 553 364 582 q 394 500 358 529 q 456 435 429 471 q 500 361 483 400 q 517 281 517 322 q 499 184 517 233 q 445 94 481 135 q 356 28 410 54 q 231 3 301 3 q 144 19 185 3 q 72 60 103 35 q 22 119 40 86 q 4 189 4 153 q 11 284 4 240 q 37 367 18 328 q 89 444 56 407 q 175 522 122 482 q 103 564 135 543 q 48 611 71 585 q 13 673 25 638 q 0 758 0 708 q 18 845 0 800 q 71 928 36 890 q 153 989 106 965 q 263 1013 201 1013 q 378 993 331 1013 q 453 944 425 974 q 494 877 482 914 q 507 806 507 840 m 96 788 q 110 714 96 743 q 147 663 124 685 q 204 621 171 640 q 278 579 238 601 q 383 667 342 619 q 424 782 424 714 q 408 864 424 829 q 368 921 393 899 q 313 953 343 943 q 254 964 283 964 q 139 921 182 964 q 96 788 96 878 m 413 246 q 399 317 413 285 q 360 379 385 350 q 299 436 335 408 q 219 492 264 464 q 172 447 194 475 q 133 385 150 419 q 104 314 115 351 q 92 240 93 276 q 102 167 90 200 q 135 112 114 135 q 188 76 157 89 q 253 63 218 63 q 317 77 288 63 q 368 117 347 92 q 401 175 389 142 q 413 246 413 208 z "},"9":{"ha":521,"x_min":0,"x_max":521,"o":"m 392 513 q 363 476 381 492 q 322 451 347 463 q 261 440 297 440 q 159 460 207 440 q 76 517 111 479 q 20 607 40 554 q 0 726 0 660 q 20 847 0 793 q 76 937 40 900 q 159 993 111 974 q 261 1013 207 1013 q 363 990 315 1013 q 445 929 410 968 q 501 838 481 890 q 521 726 521 786 l 521 583 q 485 297 521 410 q 387 119 449 185 q 242 28 325 54 q 65 3 160 3 l 65 35 q 192 58 133 35 q 296 135 251 82 q 366 272 340 188 q 392 476 392 356 l 392 513 m 392 833 q 381 889 392 863 q 353 935 371 915 q 312 965 336 954 q 261 976 288 976 q 210 963 233 976 q 169 926 186 949 q 141 875 151 904 q 131 817 131 846 l 131 654 q 169 536 131 581 q 261 492 207 492 q 353 526 315 492 q 392 619 392 560 l 392 833 z "}," ":{"ha":706,"x_min":0,"x_max":0,"o":""},"#":{"ha":758,"x_min":69,"x_max":689,"o":"m 689 647 l 526 647 l 526 388 l 689 388 l 689 257 l 526 257 l 526 -4 l 493 -4 l 461 -4 l 461 257 l 299 257 l 299 -4 l 265 -4 l 233 -4 l 233 257 l 69 257 l 69 388 l 233 388 l 233 647 l 69 647 l 69 778 l 233 778 l 233 1006 l 265 1006 l 299 1006 l 299 778 l 461 778 l 461 1006 l 493 1006 l 526 1006 l 526 778 l 689 778 l 689 647 m 461 388 l 461 647 l 299 647 l 299 388 l 461 388 z "},"$":{"ha":661,"x_min":69,"x_max":592,"o":"m 428 481 q 499 438 468 460 q 550 386 529 415 q 581 319 571 357 q 592 232 592 282 q 549 101 592 163 q 428 13 507 40 l 428 -101 l 396 -101 l 396 3 q 365 -2 381 0 q 331 -4 349 -4 l 299 -4 l 299 -101 l 265 -101 l 265 -3 q 217 3 244 -1 q 163 15 190 7 q 111 34 136 22 q 69 61 86 46 l 69 232 l 103 232 q 115 166 103 199 q 149 106 128 133 q 201 58 171 78 q 265 29 231 38 l 265 424 q 194 467 225 444 q 144 518 164 489 q 113 585 124 547 q 103 672 103 622 q 115 742 103 707 q 149 808 126 778 q 200 862 171 839 q 265 897 229 885 l 265 1006 l 299 1006 l 299 906 q 313 908 306 907 q 326 908 319 908 q 358 908 340 908 q 396 906 376 908 l 396 1006 l 428 1006 l 428 899 q 458 890 440 896 q 494 878 475 885 q 530 862 513 871 q 558 843 547 853 l 558 672 l 526 672 q 501 784 526 735 q 428 857 476 833 l 428 481 m 265 860 q 218 809 236 842 q 200 732 200 776 q 201 688 200 708 q 208 649 201 668 q 227 610 214 629 q 265 571 240 590 l 265 860 m 396 356 q 351 382 375 369 q 299 408 326 394 l 299 26 q 301 26 300 26 q 304 25 301 25 l 332 25 q 396 42 367 25 l 396 356 m 396 871 q 332 879 367 879 q 314 878 322 879 q 299 874 306 876 l 299 547 q 342 523 318 536 q 396 496 365 510 l 396 871 m 428 64 q 476 126 458 89 q 493 201 493 163 q 476 272 493 240 q 428 331 460 303 l 428 64 z "},"%":{"ha":972,"x_min":69,"x_max":903,"o":"m 415 729 q 367 525 413 597 q 244 453 321 453 q 153 483 188 453 q 101 557 119 514 q 76 645 82 600 q 69 718 69 690 q 79 824 69 772 q 110 917 89 876 q 163 981 131 957 q 239 1006 194 1006 q 322 978 289 1006 q 376 910 356 951 q 404 821 396 869 q 415 729 413 772 m 172 557 q 207 508 185 524 q 244 492 229 492 q 281 501 260 492 q 313 546 301 510 q 329 724 329 601 q 326 806 329 763 q 313 885 322 849 q 285 944 303 921 q 236 967 267 967 q 203 956 221 967 q 175 919 186 944 q 162 874 167 900 q 155 819 157 847 q 152 765 153 792 q 151 717 151 738 q 157 624 151 664 q 172 557 163 585 m 786 976 q 781 963 786 974 l 274 -19 q 261 -39 265 -39 q 254 -37 258 -39 q 239 -26 250 -35 q 224 -17 228 -19 q 221 -8 221 -14 q 228 10 221 -4 l 735 994 q 739 1002 738 999 q 744 1006 740 1006 q 751 1004 747 1006 q 764 997 754 1003 q 783 983 779 986 q 786 976 786 979 m 728 536 q 811 510 778 536 q 864 444 844 483 q 892 356 883 404 q 903 267 901 308 q 856 67 901 138 q 733 -4 810 -4 q 642 26 676 -4 q 588 99 607 57 q 563 184 569 140 q 557 256 557 228 q 567 359 557 308 q 597 449 576 410 q 651 513 618 489 q 728 536 683 536 m 801 88 q 818 260 818 142 q 815 340 818 299 q 801 417 811 382 q 772 474 790 451 q 724 497 754 497 q 692 487 708 497 q 664 451 675 476 q 651 407 656 432 q 643 355 646 382 q 640 301 640 328 q 639 254 639 275 q 644 164 639 203 q 661 97 650 125 q 695 50 672 65 q 733 35 718 35 q 769 43 749 35 q 801 88 790 51 z "},"&":{"ha":992,"x_min":69,"x_max":922,"o":"m 792 -10 q 745 46 775 8 q 686 121 715 83 q 613 215 651 165 q 519 94 568 147 q 425 11 478 49 q 315 -26 372 -26 q 230 -10 274 -26 q 151 40 186 7 q 92 121 115 72 q 69 233 69 169 q 90 375 69 313 q 147 479 111 438 q 221 551 178 515 q 300 613 264 588 q 226 714 251 675 q 190 779 201 753 q 178 826 179 806 q 178 871 178 846 q 190 925 178 896 q 226 980 203 954 q 285 1022 250 1006 q 368 1039 321 1039 q 494 990 447 1039 q 538 838 540 942 q 523 774 536 808 q 490 709 510 740 q 449 653 471 678 q 408 615 426 628 l 642 326 q 660 356 650 339 q 682 394 671 374 q 705 438 693 415 q 726 479 717 460 l 778 479 q 747 424 763 453 q 716 370 731 396 q 689 324 701 344 q 669 296 676 304 q 701 254 674 289 q 767 173 729 219 q 847 76 806 126 q 922 -10 889 26 l 792 -10 m 276 803 q 288 774 282 786 q 301 747 293 761 q 324 712 310 732 q 365 661 339 692 q 393 684 376 671 q 425 717 410 697 q 451 767 440 738 q 463 839 463 796 q 456 883 463 857 q 438 931 450 908 q 408 970 425 954 q 368 986 390 986 q 326 969 347 986 q 290 924 304 951 q 270 865 275 897 q 276 803 265 833 m 360 63 q 439 85 403 63 q 503 140 475 108 q 551 203 531 171 q 582 251 571 235 l 342 568 q 278 516 310 546 q 220 449 246 486 q 179 371 194 413 q 165 283 164 329 q 184 197 167 238 q 229 127 201 157 q 292 80 257 97 q 360 63 326 63 z "},"'":{"ha":275,"x_min":69,"x_max":206,"o":"m 156 807 q 148 806 156 806 q 132 806 140 806 q 117 806 124 806 q 110 808 110 807 q 89 922 97 872 q 76 1001 82 965 q 69 1039 69 1036 l 206 1038 q 203 1026 206 1036 q 198 999 201 1015 q 190 961 194 982 q 181 919 185 940 q 156 807 169 869 z "},"(":{"ha":447,"x_min":69,"x_max":378,"o":"m 265 -135 q 194 -24 229 -86 q 131 114 158 38 q 86 283 103 190 q 69 485 69 375 q 92 687 69 594 q 148 856 114 779 q 224 994 182 932 q 307 1104 267 1056 l 378 1104 q 242 833 293 989 q 190 458 190 676 q 231 119 190 264 q 343 -135 272 -25 l 265 -135 l 265 -135 z "},")":{"ha":446,"x_min":69,"x_max":376,"o":"m 182 -135 l 104 -135 q 215 119 174 -25 q 257 458 257 264 q 243 660 257 567 q 205 833 229 753 q 146 980 181 913 q 69 1104 111 1047 l 139 1104 q 222 994 179 1056 q 298 856 264 932 q 354 687 332 779 q 376 485 376 594 q 360 283 376 375 q 316 114 343 190 q 253 -24 289 38 q 182 -135 218 -86 z "},"*":{"ha":564,"x_min":74,"x_max":482,"o":"m 236 646 q 242 678 236 651 q 255 735 247 706 q 269 790 263 765 q 275 817 275 814 l 272 817 q 250 793 267 811 q 214 756 233 775 q 177 719 194 736 q 156 699 160 701 q 119 689 138 688 q 90 710 101 690 q 83 734 82 724 q 88 753 83 744 q 100 767 93 761 q 111 776 107 774 q 141 789 117 781 q 193 806 165 797 q 244 820 221 814 q 271 826 268 826 l 271 829 q 244 837 268 831 q 192 851 221 843 q 138 867 163 860 q 107 876 113 874 q 83 899 93 883 q 86 938 74 915 q 117 961 99 961 q 151 953 136 961 q 176 931 157 949 q 217 894 196 914 q 254 856 238 874 q 272 838 271 839 l 275 840 q 269 866 275 842 q 255 921 263 890 q 242 978 247 951 q 236 1011 236 1004 q 246 1044 236 1031 q 279 1057 256 1057 q 313 1045 304 1057 q 322 1011 322 1033 q 317 976 322 1003 q 304 919 311 949 q 291 865 297 889 q 283 839 285 840 l 286 836 q 305 856 288 838 q 343 895 322 874 q 383 935 364 917 q 407 957 401 954 q 439 963 422 965 q 467 940 456 960 q 474 902 482 917 q 450 876 465 888 q 419 865 443 872 q 366 849 394 857 q 315 835 338 842 q 289 829 292 829 l 289 826 q 315 819 290 826 q 368 804 339 813 q 423 788 397 796 q 454 778 449 781 q 467 769 460 774 q 477 756 474 764 q 480 738 481 749 q 469 710 479 726 q 439 690 458 690 q 404 700 419 690 q 380 721 399 703 q 340 760 361 739 q 303 799 319 781 q 286 819 288 817 l 283 817 q 291 790 285 814 q 304 737 297 767 q 317 681 311 707 q 322 646 322 654 q 315 613 322 631 q 279 596 307 596 q 246 611 256 596 q 236 646 236 626 z "},"+":{"ha":594,"x_min":69,"x_max":525,"o":"m 508 517 q 522 512 518 517 q 525 492 525 507 l 525 404 q 521 390 525 393 q 507 388 517 388 l 329 388 l 329 192 l 264 192 l 264 388 l 83 388 q 72 388 75 386 q 69 400 69 390 l 69 501 q 72 515 69 513 q 83 517 75 517 l 264 517 l 264 713 l 329 713 l 329 517 l 508 517 l 508 517 z "},",":{"ha":311,"x_min":72,"x_max":242,"o":"m 242 126 l 242 -4 q 217 -90 242 -53 q 163 -151 193 -126 q 108 -187 133 -175 q 79 -200 82 -200 q 74 -189 72 -200 q 82 -171 75 -178 q 106 -146 92 -161 q 133 -110 121 -131 q 155 -68 146 -90 q 164 -21 164 -46 q 160 -4 164 -12 l 111 -4 l 111 126 l 242 126 z "},"-":{"ha":540,"x_min":69,"x_max":471,"o":"m 69 510 q 72 524 69 521 q 82 526 75 526 l 457 526 q 467 521 464 526 q 471 500 471 515 l 471 413 q 467 399 471 401 q 456 396 463 396 l 82 396 q 69 407 69 392 l 69 510 z "},".":{"ha":269,"x_min":69,"x_max":200,"o":"m 69 0 l 69 131 l 200 131 l 200 0 l 69 0 l 69 0 z "},"/":{"ha":599,"x_min":68,"x_max":529,"o":"m 529 1053 q 528 1042 529 1046 l 143 -32 l 71 -32 q 74 -18 68 -26 l 456 1053 l 529 1053 z "},":":{"ha":269,"x_min":69,"x_max":200,"o":"m 69 0 l 69 131 l 200 131 l 200 0 l 69 0 m 69 588 l 200 588 l 200 457 l 69 457 l 69 588 z "},";":{"ha":311,"x_min":72,"x_max":242,"o":"m 242 581 l 242 450 l 111 450 l 111 581 l 242 581 m 111 125 l 242 125 l 242 -6 q 217 -91 242 -54 q 163 -152 193 -128 q 108 -189 133 -176 q 79 -201 82 -201 q 74 -190 72 -201 q 82 -172 75 -179 q 106 -147 92 -162 q 134 -112 121 -132 q 156 -70 147 -93 q 165 -22 165 -47 q 164 -14 165 -18 q 161 -6 163 -10 l 111 -6 l 111 125 z "},"<":{"ha":507,"x_min":69,"x_max":438,"o":"m 69 447 l 69 493 l 438 757 l 438 661 l 176 476 l 176 469 l 438 278 l 438 181 l 69 447 l 69 447 z "},"=":{"ha":629,"x_min":69,"x_max":560,"o":"m 69 288 l 69 388 l 560 388 l 560 288 l 69 288 m 69 658 l 560 658 l 560 557 l 69 557 l 69 658 z "},">":{"ha":507,"x_min":69,"x_max":438,"o":"m 438 490 l 438 443 l 69 181 l 69 275 l 331 460 l 331 467 l 69 658 l 69 757 l 438 490 l 438 490 z "},"?":{"ha":558,"x_min":69,"x_max":489,"o":"m 126 1046 q 224 1026 163 1046 q 344 965 285 1007 q 446 859 403 924 q 489 706 489 794 q 451 580 489 631 q 363 498 414 529 q 263 451 313 467 q 188 435 213 436 q 178 422 178 435 l 178 253 q 169 242 178 242 l 147 242 q 139 253 139 242 l 99 536 q 111 561 99 549 q 131 571 124 574 q 182 564 150 565 q 229 563 214 563 q 265 565 243 563 q 308 580 288 568 q 344 613 329 592 q 358 672 358 635 q 342 752 358 710 q 297 830 326 794 q 226 888 268 865 q 131 910 183 911 q 82 930 94 908 q 69 983 69 951 q 72 998 69 988 q 80 1019 74 1008 q 97 1038 86 1029 q 126 1046 108 1046 m 99 133 l 229 133 l 229 3 l 99 3 l 99 133 z "},"@":{"ha":1083,"x_min":69,"x_max":1014,"o":"m 261 203 q 288 337 263 286 q 363 415 314 388 q 486 450 413 442 q 656 458 560 458 q 717 463 689 461 q 761 463 740 464 q 786 458 782 463 l 786 189 q 803 64 789 99 q 833 25 817 29 q 865 35 850 21 q 883 54 879 49 q 907 103 900 76 q 916 162 914 129 q 917 234 918 194 q 917 324 917 274 q 893 467 917 404 q 829 572 869 529 q 735 636 789 614 q 624 660 682 658 q 467 642 533 663 q 354 584 401 621 q 276 497 307 547 q 229 390 246 446 q 206 273 213 333 q 200 156 200 213 q 232 -12 200 65 q 314 -146 264 -89 q 427 -235 364 -203 q 553 -267 490 -267 q 668 -257 610 -267 q 776 -207 726 -247 l 792 -243 q 751 -274 778 -258 q 691 -300 725 -289 q 617 -318 657 -311 q 536 -325 576 -325 q 367 -278 450 -325 q 217 -158 283 -232 q 110 7 151 -85 q 69 189 69 99 q 206 589 69 451 q 624 726 342 726 q 770 697 700 726 q 894 615 840 668 q 981 488 949 563 q 1014 324 1014 414 q 1003 181 1014 249 q 970 63 993 114 q 910 -17 947 13 q 818 -46 872 -46 q 776 -43 801 -46 q 727 -26 750 -40 q 688 20 704 -11 q 672 108 672 51 l 668 108 q 588 37 640 68 q 464 6 536 6 q 376 22 414 6 q 312 67 338 39 q 274 130 286 94 q 261 203 261 165 m 664 371 q 564 367 614 372 q 474 344 514 361 q 408 297 433 328 q 382 217 382 267 q 416 127 382 156 q 496 99 450 99 q 601 133 561 99 q 657 213 642 168 q 664 253 664 233 l 664 371 z "},"A":{"ha":747,"x_min":0,"x_max":747,"o":"m 447 490 l 213 490 l 47 35 l 49 35 l 36 1 l 1 1 l 0 1 l 13 35 l 378 1044 l 399 1044 l 660 263 l 747 1 l 611 1 l 524 263 l 521 268 l 447 490 m 335 829 l 224 522 l 436 522 l 335 829 z "},"B":{"ha":618,"x_min":0,"x_max":618,"o":"m 413 546 q 494 510 457 535 q 560 449 532 485 q 603 370 588 414 q 618 278 618 326 q 597 170 618 221 q 538 82 575 119 q 449 23 500 44 q 342 1 399 1 l 228 1 l 129 1 l 0 1 l 0 35 l 0 979 l 0 1011 l 97 1011 l 129 1011 l 228 1011 l 308 1011 q 404 992 360 1011 q 482 939 449 972 q 534 861 515 906 q 553 767 553 817 q 514 634 553 693 q 413 546 475 575 m 129 556 l 228 556 l 257 556 q 322 569 292 556 q 374 604 351 582 q 410 657 397 626 q 424 722 424 688 l 424 813 q 410 877 424 847 q 374 930 397 907 q 322 966 351 953 q 257 979 292 979 l 228 979 l 129 979 l 129 556 m 488 326 q 472 403 488 367 q 431 465 457 439 q 368 507 404 492 q 292 522 332 522 l 228 522 l 129 522 l 129 35 l 228 35 l 292 35 q 368 50 332 35 q 431 92 404 65 q 472 154 457 118 q 488 231 488 190 l 488 326 z "},"C":{"ha":782,"x_min":0,"x_max":782,"o":"m 472 35 q 627 78 551 35 q 750 197 703 122 l 782 197 q 635 54 721 107 q 440 1 550 1 q 269 41 349 1 q 129 149 189 81 q 35 310 69 218 q 0 507 0 403 q 35 703 0 611 q 129 863 69 794 q 269 972 189 932 q 440 1011 349 1011 q 523 1001 481 1011 q 606 972 565 990 q 684 931 647 954 q 750 881 721 907 l 750 864 l 750 783 l 750 686 l 717 686 l 717 725 q 704 806 717 767 q 669 877 692 844 q 615 934 647 910 q 543 969 582 958 q 508 976 525 974 q 472 979 492 979 q 339 942 401 979 q 231 841 276 906 q 158 690 185 776 q 131 507 131 604 q 158 323 131 408 q 231 173 185 238 q 339 72 276 108 q 472 35 401 35 z "},"D":{"ha":717,"x_min":0,"x_max":717,"o":"m 260 1011 q 438 970 354 1011 q 583 861 521 929 q 681 705 644 793 q 717 522 717 617 l 717 490 q 681 308 717 396 q 583 151 644 219 q 438 42 521 83 q 260 1 354 1 l 131 1 l 0 1 l 0 35 l 0 979 l 0 1011 l 131 1011 l 260 1011 m 588 522 q 573 676 588 596 q 519 824 558 757 q 410 935 479 892 q 231 979 340 979 l 131 979 l 131 35 l 231 35 q 410 78 340 35 q 519 189 479 122 q 573 336 558 256 q 588 490 588 417 l 588 522 z "},"E":{"ha":554,"x_min":0,"x_max":554,"o":"m 229 979 l 131 979 l 131 556 l 164 556 l 196 556 l 244 556 l 326 556 l 392 556 l 554 556 l 554 522 l 392 522 l 326 522 l 244 522 l 196 522 l 164 522 l 131 522 l 131 490 l 131 425 l 131 35 l 229 35 l 392 35 l 554 35 l 554 1 l 131 1 l 0 1 l 0 35 l 0 979 l 0 1011 l 131 1011 l 554 1011 l 554 979 l 392 979 l 229 979 l 229 979 z "},"F":{"ha":554,"x_min":0,"x_max":554,"o":"m 196 979 l 131 979 l 131 556 l 163 556 l 196 556 l 244 556 l 326 556 l 390 556 l 554 556 l 554 522 l 390 522 l 326 522 l 244 522 l 196 522 l 163 522 l 131 522 l 131 490 l 131 425 l 131 328 l 131 35 l 131 1 l 0 1 l 0 35 l 0 979 l 0 1011 l 131 1011 l 554 1011 l 554 979 l 390 979 l 196 979 l 196 979 z "},"G":{"ha":782,"x_min":0,"x_max":782,"o":"m 586 556 l 782 556 l 782 522 l 782 328 l 782 67 q 701 33 750 49 q 595 11 660 21 q 439 1 531 1 q 267 41 347 1 q 128 149 188 81 q 35 310 69 218 q 0 507 0 403 q 35 703 0 611 q 128 863 69 794 q 267 972 188 932 q 439 1011 347 1011 q 526 1005 482 1011 q 612 987 571 999 q 688 957 653 975 q 749 914 724 939 l 749 864 l 749 783 l 708 783 q 651 899 694 849 q 542 969 608 950 q 508 976 525 974 q 472 979 490 979 q 339 942 401 979 q 230 841 276 906 q 156 690 183 776 q 129 507 129 604 q 156 323 129 408 q 230 173 183 238 q 339 72 276 108 q 472 35 401 35 q 564 51 518 35 q 651 96 610 67 l 651 522 l 586 522 l 521 522 l 521 556 l 586 556 z "},"H":{"ha":685,"x_min":0,"x_max":685,"o":"m 554 1011 l 685 1011 l 685 979 l 685 35 l 685 1 l 554 1 l 554 35 l 554 425 l 554 490 l 554 522 l 521 522 l 489 522 l 457 522 l 228 522 l 196 522 l 163 522 l 131 522 l 131 490 l 131 425 l 131 35 l 131 1 l 0 1 l 0 35 l 0 979 l 0 1011 l 131 1011 l 131 979 l 131 686 l 131 556 l 163 556 l 196 556 l 228 556 l 457 556 l 489 556 l 521 556 l 554 556 l 554 686 l 554 979 l 554 1011 l 554 1011 z "},"I":{"ha":131,"x_min":0,"x_max":131,"o":"m 131 35 l 131 1 l 0 1 l 0 35 l 0 979 l 0 1011 l 131 1011 l 131 979 l 131 653 l 131 556 l 131 522 l 131 490 l 131 425 l 131 35 l 131 35 z "},"J":{"ha":390,"x_min":0,"x_max":390,"o":"m 390 1011 l 390 979 l 390 849 l 390 653 l 390 556 l 390 522 l 390 490 l 390 328 l 390 164 q 361 30 390 90 q 281 -76 332 -31 q 157 -152 229 -122 q 0 -194 85 -182 l 0 -161 q 122 -125 72 -149 q 203 -68 172 -101 q 247 8 233 -35 q 260 99 260 50 l 260 328 l 260 490 l 260 751 l 260 979 l 260 1011 l 390 1011 z "},"K":{"ha":768,"x_min":0,"x_max":768,"o":"m 749 35 l 768 1 l 767 1 l 619 1 l 618 1 l 600 35 l 263 611 l 131 474 l 131 425 l 131 294 l 131 35 l 131 1 l 0 1 l 0 35 l 0 338 l 0 385 l 0 979 l 0 1011 l 131 1011 l 131 979 l 131 817 l 131 653 l 131 556 l 131 522 l 131 521 l 569 979 l 600 1011 l 601 1011 l 646 1011 l 647 1011 l 615 979 l 522 882 l 357 710 l 749 35 l 749 35 z "},"L":{"ha":553,"x_min":0,"x_max":553,"o":"m 346 35 l 553 35 l 553 1 l 228 1 l 129 1 l 97 1 l 0 1 l 0 1011 l 129 1011 l 129 979 l 129 653 l 129 556 l 129 522 l 129 490 l 129 425 l 129 35 l 194 35 l 228 35 l 346 35 l 346 35 z "},"M":{"ha":815,"x_min":0,"x_max":815,"o":"m 732 1011 l 815 1011 l 815 979 l 815 653 l 815 556 l 815 522 l 815 490 l 815 425 l 815 35 l 815 1 l 685 1 l 685 35 l 685 328 l 685 910 l 432 360 l 417 328 l 358 200 l 182 589 l 33 918 l 33 328 l 33 35 l 33 1 l 0 1 l 0 35 l 0 979 l 0 1011 l 33 1011 l 97 1011 l 132 1011 l 414 400 l 694 1011 l 732 1011 l 732 1011 z "},"N":{"ha":651,"x_min":0,"x_max":651,"o":"m 651 1007 l 651 975 l 651 714 l 651 192 l 651 -3 l 651 -35 l 639 -35 l 618 -3 l 618 -1 l 32 931 l 32 389 l 32 31 l 32 -3 l 0 -3 l 0 31 l 0 975 l 0 1007 l 32 1007 l 138 1007 l 618 243 l 618 813 l 618 975 l 618 1007 l 651 1007 l 651 1007 z "},"O":{"ha":1010,"x_min":0,"x_max":1010,"o":"m 506 1007 q 702 967 610 1007 q 863 860 794 928 q 970 699 931 792 q 1010 503 1010 607 q 970 306 1010 399 q 863 145 931 214 q 702 37 794 76 q 506 -3 610 -3 q 309 37 401 -3 q 148 145 217 76 q 40 306 79 214 q 0 503 0 399 q 40 699 0 607 q 148 860 79 792 q 309 967 217 928 q 506 1007 401 1007 m 506 31 q 651 67 583 31 q 771 169 719 104 q 851 319 822 233 q 881 503 881 404 q 851 686 881 600 q 771 837 822 772 q 651 938 719 901 q 506 975 583 975 q 360 938 428 975 q 240 837 292 901 q 160 686 189 772 q 131 503 131 600 q 160 319 131 404 q 240 169 189 233 q 360 67 292 104 q 506 31 428 31 z "},"P":{"ha":619,"x_min":0,"x_max":619,"o":"m 310 1007 q 430 983 374 1007 q 528 917 486 958 q 595 819 571 875 q 619 699 619 763 q 595 578 619 635 q 528 480 571 522 q 430 413 486 438 q 310 389 374 389 l 131 389 l 131 356 l 131 31 l 131 -3 l 0 -3 l 0 31 l 0 975 l 0 1007 l 33 1007 l 131 1007 l 310 1007 m 489 742 q 471 833 489 790 q 421 907 453 875 q 347 957 389 939 q 257 975 304 975 l 131 975 l 131 519 l 131 486 l 131 421 l 257 421 q 347 439 304 421 q 421 489 389 457 q 471 563 453 521 q 489 654 489 606 l 489 742 z "},"Q":{"ha":1010,"x_min":0,"x_max":1010,"o":"m 1010 503 q 985 344 1010 419 q 915 207 960 269 q 807 98 869 144 q 671 26 744 51 l 782 -133 l 710 -133 l 685 -133 l 588 6 q 506 -3 547 -3 q 309 37 401 -3 q 148 145 217 76 q 40 306 79 214 q 0 503 0 399 q 40 699 0 607 q 148 860 79 792 q 309 967 217 928 q 506 1007 401 1007 q 702 967 610 1007 q 863 860 794 928 q 970 699 931 792 q 1010 503 1010 607 m 644 65 q 740 135 696 92 q 815 236 783 179 q 863 360 846 293 q 881 503 881 428 q 851 686 881 600 q 771 837 822 772 q 651 938 719 901 q 506 975 583 975 q 360 938 428 975 q 240 837 292 901 q 160 686 189 772 q 131 503 131 600 q 160 319 131 404 q 240 169 189 233 q 360 67 292 104 q 506 31 428 31 q 565 38 533 31 l 457 193 l 522 193 l 554 193 l 644 65 z "},"R":{"ha":688,"x_min":0,"x_max":688,"o":"m 688 -3 l 533 -3 l 411 190 l 286 389 l 131 389 l 131 356 l 131 31 l 131 -3 l 0 -3 l 0 31 l 0 975 l 0 1007 l 32 1007 l 131 1007 l 310 1007 q 430 983 374 1007 q 528 917 486 958 q 595 819 571 875 q 619 699 619 763 q 565 523 619 600 q 426 411 511 446 l 667 31 l 688 -3 m 256 421 q 347 439 304 421 q 421 489 389 457 q 471 563 453 521 q 489 654 489 606 l 489 742 q 471 833 489 790 q 421 907 453 875 q 347 957 389 939 q 256 975 304 975 l 131 975 l 131 519 l 131 486 l 131 421 l 256 421 z "},"S":{"ha":521,"x_min":0,"x_max":521,"o":"m 325 551 q 410 501 374 526 q 472 442 447 475 q 508 364 496 408 q 521 258 521 319 q 503 163 521 210 q 451 78 485 115 q 369 19 418 42 q 260 -3 321 -3 q 200 -2 235 -3 q 129 5 165 -1 q 58 24 93 11 q 0 63 24 38 l 0 96 l 0 63 l 0 258 l 32 258 q 48 176 32 217 q 91 103 64 135 q 155 51 118 71 q 233 31 192 31 l 261 31 q 324 47 294 31 q 376 91 354 64 q 410 153 397 118 q 424 225 424 189 q 375 353 424 300 q 228 454 326 406 q 142 505 179 479 q 81 564 106 531 q 44 642 57 597 q 32 747 32 686 q 49 840 32 794 q 97 923 67 886 q 167 983 126 960 q 256 1007 208 1007 q 303 1006 274 1007 q 365 999 332 1006 q 430 980 397 993 q 488 943 463 967 l 488 747 l 456 747 q 443 838 456 796 q 406 910 431 879 q 346 958 382 940 q 261 975 310 975 q 167 931 206 975 q 129 813 129 886 q 132 744 129 775 q 153 682 135 713 q 212 619 172 651 q 325 551 251 588 z "},"T":{"ha":782,"x_min":0,"x_max":782,"o":"m 782 1007 l 782 975 l 575 975 l 522 975 l 457 975 l 457 910 l 457 585 l 457 519 l 457 486 l 457 454 l 457 356 l 457 31 l 457 -3 l 326 -3 l 326 31 l 326 617 l 326 975 l 293 975 l 228 975 l 207 975 l 0 975 l 0 1007 l 228 1007 l 326 1007 l 392 1007 l 424 1007 l 457 1007 l 782 1007 l 782 1007 z "},"U":{"ha":685,"x_min":0,"x_max":685,"o":"m 685 975 l 685 649 l 685 356 q 607 91 685 185 q 358 -3 529 -3 q 223 17 288 -3 q 108 79 158 36 q 29 190 58 122 q 0 356 0 258 l 0 779 l 0 975 l 0 1007 l 131 1007 l 131 975 l 131 779 l 131 356 q 155 195 131 258 q 217 96 179 132 q 301 45 254 60 q 392 31 347 31 q 487 49 440 31 q 570 108 533 68 q 629 208 607 147 q 651 356 651 269 l 651 649 l 651 975 l 651 1007 l 685 1007 l 685 975 z "},"V":{"ha":749,"x_min":0,"x_max":749,"o":"m 736 975 l 735 975 l 371 -35 l 350 -35 l 11 975 l 0 1007 l 138 1007 l 139 1007 l 149 975 l 283 572 l 283 571 l 414 181 l 571 615 l 701 975 l 700 975 l 711 1007 l 713 1007 l 747 1007 l 749 1007 l 736 975 l 736 975 z "},"W":{"ha":1169,"x_min":0,"x_max":1169,"o":"m 1169 1007 l 1158 975 l 793 -35 l 772 -35 l 579 543 l 369 -35 l 349 -35 l 11 975 l 0 1007 l 138 1007 l 149 975 l 413 181 l 563 593 l 435 975 l 424 1007 l 561 1007 l 572 975 l 633 790 l 700 975 l 713 1007 l 746 1007 l 735 975 l 650 740 l 836 181 l 1124 975 l 1135 1007 l 1169 1007 l 1169 1007 z "},"X":{"ha":865,"x_min":0,"x_max":865,"o":"m 842 31 l 865 -3 l 706 -3 l 683 31 l 403 432 l 124 31 l 101 -3 l 61 -3 l 83 31 l 383 460 l 24 975 l 0 1007 l 160 1007 l 183 975 l 463 574 l 742 975 l 765 1007 l 804 1007 l 782 975 l 482 546 l 842 31 l 842 31 z "},"Y":{"ha":801,"x_min":0,"x_max":801,"o":"m 801 1007 l 779 975 l 479 519 l 479 486 l 479 454 l 479 356 l 479 31 l 479 -3 l 349 -3 l 349 31 l 349 519 l 21 975 l 0 1007 l 157 1007 l 181 975 l 468 568 l 739 975 l 763 1007 l 801 1007 l 801 1007 z "},"Z":{"ha":651,"x_min":0,"x_max":651,"o":"m 478 31 l 651 31 l 651 -3 l 618 -3 l 181 -3 l 97 -3 l 40 -3 l 432 975 l 229 975 l 172 975 l 0 975 l 0 1007 l 32 1007 l 446 1007 l 553 1007 l 586 1007 l 193 31 l 424 31 l 478 31 l 478 31 z "},"[":{"ha":401,"x_min":69,"x_max":332,"o":"m 135 1085 l 201 1085 l 332 1085 l 332 1053 l 201 1053 l 201 -164 l 332 -164 l 332 -197 l 201 -197 l 135 -197 l 69 -197 l 69 1085 l 135 1085 l 135 1085 z "},"\\":{"ha":565,"x_min":69,"x_max":496,"o":"m 426 -32 l 69 1044 l 69 1053 l 139 1053 l 494 -24 q 496 -32 496 -26 l 426 -32 z "},"]":{"ha":403,"x_min":69,"x_max":333,"o":"m 267 1085 l 333 1085 l 333 -197 l 267 -197 l 201 -197 l 69 -197 l 69 -164 l 201 -164 l 201 1053 l 69 1053 l 69 1085 l 201 1085 l 267 1085 l 267 1085 z "},"^":{"ha":528,"x_min":69,"x_max":458,"o":"m 140 625 l 69 625 l 244 1053 l 282 1053 l 458 625 l 381 625 l 263 915 l 256 915 l 140 625 l 140 625 z "},"_":{"ha":731,"x_min":69,"x_max":661,"o":"m 69 0 l 661 0 l 661 -94 l 69 -94 l 69 0 l 69 0 z "},"`":{"ha":347,"x_min":75,"x_max":278,"o":"m 278 822 q 273 815 278 821 q 262 803 268 810 q 251 792 256 797 q 244 789 246 788 q 196 821 221 806 q 151 851 175 835 q 104 882 126 867 q 78 924 81 897 q 94 969 75 950 q 141 987 114 989 q 183 963 168 985 q 214 916 199 940 q 244 871 229 892 q 278 822 260 846 z "},"a":{"ha":522,"x_min":0,"x_max":522,"o":"m 392 94 q 322 20 363 50 q 229 -10 282 -10 q 120 4 164 -10 q 49 42 76 18 q 11 101 22 67 q 0 175 0 135 q 38 277 0 240 q 135 329 76 314 q 262 344 193 344 q 392 333 331 343 l 392 393 l 392 460 q 364 528 392 500 q 296 556 336 556 l 293 556 q 258 553 281 556 q 208 539 236 551 q 152 500 181 526 q 99 425 124 474 l 65 425 l 65 522 q 133 560 103 547 q 188 580 164 574 q 231 587 213 586 q 261 588 249 588 q 453 539 383 588 q 522 393 522 490 l 522 328 l 522 294 l 522 229 l 522 35 l 522 1 l 485 1 q 419 28 446 1 q 392 94 392 56 m 229 22 q 295 45 265 22 q 347 101 325 68 q 380 169 368 133 q 392 229 392 204 l 392 294 q 296 306 343 307 q 212 290 249 306 q 153 244 175 275 q 131 164 131 213 q 136 112 131 138 q 153 67 142 86 q 183 35 164 47 q 229 22 201 22 z "},"b":{"ha":588,"x_min":0,"x_max":588,"o":"m 294 588 q 422 565 367 588 q 514 502 478 542 q 569 409 550 463 q 588 294 588 356 q 565 181 588 233 q 501 88 542 128 q 408 24 461 47 q 294 1 354 1 q 185 23 236 1 q 93 82 133 44 l 33 1 l 0 1 l 0 783 l 0 979 l 0 1011 l 65 1011 l 131 1011 l 131 539 q 208 575 167 563 q 294 588 249 588 m 294 35 q 374 55 343 35 q 424 110 406 75 q 450 193 443 146 q 457 294 457 240 q 444 418 457 368 q 409 499 431 468 q 358 542 388 529 q 294 556 328 556 q 205 521 250 556 q 131 429 160 486 l 131 160 q 205 69 160 103 q 294 35 250 35 z "},"c":{"ha":488,"x_min":0,"x_max":488,"o":"m 488 132 q 387 30 439 58 q 260 1 335 1 q 151 24 199 1 q 69 88 103 47 q 18 181 36 128 q 0 294 0 233 q 18 409 0 356 q 69 502 36 463 q 151 565 103 542 q 260 588 199 588 l 279 588 q 288 587 283 588 q 296 586 292 586 q 300 585 299 586 q 392 557 346 581 q 401 551 397 554 q 410 544 406 547 l 411 544 q 451 500 440 524 q 453 444 465 469 q 422 419 440 425 q 381 426 401 415 q 360 448 369 433 q 342 483 351 463 q 324 518 332 503 q 299 544 317 533 q 274 551 288 551 q 238 540 261 550 q 160 447 190 513 q 129 294 129 381 q 141 193 129 240 q 174 110 153 146 q 226 55 196 75 q 293 35 256 35 q 387 59 342 35 q 456 132 432 83 l 488 132 z "},"d":{"ha":586,"x_min":0,"x_max":586,"o":"m 586 1 l 554 1 l 456 1 l 456 35 l 456 51 q 379 15 421 28 q 293 1 338 1 q 178 24 232 1 q 85 88 125 47 q 23 181 46 128 q 0 294 0 233 q 18 409 0 356 q 73 502 36 463 q 165 565 110 542 q 293 588 219 588 q 379 575 338 588 q 456 539 421 563 l 456 751 l 456 979 l 456 1011 l 521 1011 l 586 1011 l 586 263 l 586 35 l 586 1 m 456 429 q 383 521 428 486 q 293 556 338 556 q 230 542 260 556 q 178 499 200 529 q 143 418 156 468 q 131 294 131 368 q 138 193 131 240 q 163 110 144 146 q 213 55 181 75 q 293 35 244 35 q 383 69 338 35 q 456 160 428 103 l 456 263 l 456 429 z "},"e":{"ha":525,"x_min":31,"x_max":525,"o":"m 331 35 q 424 59 379 35 q 493 132 469 83 l 525 132 q 477 71 501 96 q 426 31 453 46 q 368 8 399 15 q 301 1 338 1 q 215 15 256 1 q 140 55 174 29 q 83 116 107 81 q 49 196 58 151 q 40 343 31 272 q 82 468 49 414 q 170 555 115 522 q 297 588 225 588 q 377 574 336 588 q 453 531 418 561 q 484 479 478 508 q 480 424 490 450 q 445 378 469 397 q 388 360 421 360 l 171 360 q 167 294 167 328 q 178 193 167 240 q 212 110 190 146 q 263 55 233 75 q 331 35 293 35 m 297 556 q 216 510 246 556 q 175 393 186 464 l 292 393 q 338 408 318 393 q 369 443 358 422 q 376 488 379 464 q 356 532 374 513 q 297 556 332 556 z "},"f":{"ha":371,"x_min":0,"x_max":371,"o":"m 313 817 q 280 814 299 818 q 244 788 261 810 q 213 719 226 767 q 196 588 199 672 l 293 588 l 293 556 l 194 556 l 194 522 l 194 457 l 194 425 l 194 229 l 194 35 l 194 1 l 65 1 l 65 35 l 65 164 l 65 425 l 65 457 l 65 556 l 0 556 l 0 588 l 65 588 q 83 683 65 636 q 135 767 101 731 q 216 826 168 804 q 325 849 264 849 q 344 847 331 849 q 371 843 358 846 l 361 779 l 354 776 q 335 803 347 792 q 313 817 324 814 z "},"g":{"ha":554,"x_min":0,"x_max":554,"o":"m 554 556 l 554 6 q 257 -292 554 -292 l 164 -292 q 113 -281 142 -292 q 65 -260 83 -269 l 99 -194 q 122 -219 107 -207 q 156 -240 138 -231 q 193 -254 174 -249 q 229 -260 213 -260 l 293 -260 q 344 -249 319 -260 q 385 -222 368 -239 q 413 -181 403 -204 q 424 -129 424 -157 l 424 56 q 367 17 399 32 q 294 1 335 1 q 180 24 233 1 q 86 88 126 47 q 23 181 46 128 q 0 294 0 233 q 23 409 0 356 q 86 502 46 463 q 180 565 126 542 q 294 588 233 588 q 367 573 335 588 q 424 533 399 558 l 424 556 l 554 556 m 294 35 q 368 63 335 35 q 424 139 401 90 l 424 450 q 368 527 401 499 q 294 556 335 556 q 231 535 261 556 q 179 478 201 514 q 144 396 157 443 q 131 294 131 349 q 144 193 131 240 q 179 110 157 146 q 231 55 201 75 q 294 35 261 35 z "},"h":{"ha":521,"x_min":0,"x_max":521,"o":"m 390 35 l 390 432 q 354 519 390 483 q 267 556 318 556 q 214 545 239 556 q 170 516 189 535 q 140 472 151 497 q 129 418 129 447 l 129 229 l 129 132 l 129 35 l 129 1 l 0 1 l 0 35 l 0 132 l 0 285 l 0 979 l 0 1011 l 129 1011 l 129 979 l 129 783 l 129 653 l 129 556 l 129 533 q 303 588 207 588 l 321 588 q 399 572 363 588 q 462 528 435 556 q 505 465 489 501 q 521 388 521 429 l 521 164 l 521 35 l 521 1 l 390 1 l 390 35 z "},"i":{"ha":129,"x_min":0,"x_max":129,"o":"m 0 556 l 0 588 l 129 588 l 129 556 l 129 457 l 129 425 l 129 328 l 129 294 l 129 35 l 129 1 l 0 1 l 0 35 l 0 328 l 0 425 l 0 457 l 0 556 m 0 849 l 129 849 l 129 718 l 0 718 l 0 849 z "},"j":{"ha":358,"x_min":0,"x_max":358,"o":"m 228 588 l 358 588 l 358 556 l 358 457 l 358 393 l 358 360 l 358 328 l 358 294 l 358 263 l 358 229 l 358 197 l 358 67 q 332 -61 358 -3 q 258 -165 306 -119 q 145 -240 211 -210 q 0 -286 79 -271 l 0 -253 q 108 -215 64 -239 q 178 -158 151 -190 q 216 -85 204 -125 q 228 0 228 -46 l 228 197 l 228 229 l 228 263 l 228 328 l 228 360 l 228 393 l 228 457 l 228 556 l 228 588 m 358 849 l 358 718 l 228 718 l 228 849 l 358 849 z "},"k":{"ha":679,"x_min":0,"x_max":679,"o":"m 660 35 l 679 1 l 529 1 l 421 186 l 232 517 l 129 410 l 129 294 l 129 229 l 129 35 l 129 1 l 0 1 l 0 35 l 0 274 l 0 321 l 0 425 l 0 457 l 0 588 l 0 686 l 0 979 l 0 1011 l 32 1011 l 129 1011 l 129 686 l 129 588 l 129 556 l 129 457 l 411 750 l 474 817 l 472 817 l 503 849 l 506 849 l 550 849 l 519 817 l 361 651 l 325 614 l 660 35 l 660 35 z "},"l":{"ha":131,"x_min":0,"x_max":131,"o":"m 131 35 l 131 1 l 0 1 l 0 556 l 0 751 l 0 1011 l 131 1011 l 131 979 l 131 817 l 131 490 l 131 457 l 131 425 l 131 294 l 131 35 l 131 35 z "},"m":{"ha":913,"x_min":0,"x_max":913,"o":"m 913 1 l 847 1 l 782 1 l 782 35 l 782 360 l 782 432 q 747 519 782 483 q 658 556 711 556 q 562 516 601 556 q 522 418 522 476 l 522 388 l 522 360 l 522 132 l 522 35 l 522 1 l 457 1 l 392 1 l 392 35 l 392 67 l 392 132 l 392 285 l 392 317 l 392 360 l 392 393 l 392 432 q 356 519 392 483 q 268 556 319 556 q 170 516 210 556 q 131 418 131 476 l 131 360 l 131 328 l 131 294 l 131 132 l 131 35 l 131 1 l 0 1 l 0 35 l 0 132 l 0 285 l 0 328 l 0 425 l 0 457 l 0 556 l 0 588 l 131 588 l 131 556 l 131 533 q 304 588 208 588 l 321 588 q 417 563 374 588 q 489 497 461 538 q 548 549 519 531 q 602 576 576 568 q 651 586 628 585 q 696 588 674 588 l 713 588 q 790 572 754 588 q 853 528 826 556 q 897 465 881 501 q 913 388 913 429 l 913 360 l 913 35 l 913 1 z "},"n":{"ha":521,"x_min":0,"x_max":521,"o":"m 392 31 l 392 428 q 356 515 392 479 q 268 551 319 551 q 170 512 210 551 q 131 414 131 472 l 131 356 l 131 324 l 131 290 l 131 128 l 131 31 l 131 -3 l 0 -3 l 0 31 l 0 128 l 0 281 l 0 324 l 0 421 l 0 454 l 0 551 l 0 585 l 131 585 l 131 551 l 131 529 q 211 570 167 556 q 304 585 256 585 l 321 585 q 399 569 363 585 q 462 526 435 553 q 505 462 489 499 q 521 383 521 425 l 521 258 l 521 31 l 521 -3 l 392 -3 l 392 31 z "},"o":{"ha":586,"x_min":0,"x_max":586,"o":"m 293 585 q 406 562 353 585 q 500 499 460 539 q 563 405 540 458 q 586 290 586 351 q 563 176 586 229 q 500 83 540 124 q 406 20 460 43 q 293 -3 353 -3 q 178 20 232 -3 q 85 83 125 43 q 23 176 46 124 q 0 290 0 229 q 23 405 0 351 q 85 499 46 458 q 178 562 125 539 q 293 585 232 585 m 293 31 q 356 51 326 31 q 408 106 386 71 q 443 189 431 142 q 456 290 456 236 q 443 392 456 344 q 408 474 431 439 q 356 531 386 510 q 293 551 326 551 q 230 531 260 551 q 178 474 200 510 q 143 392 156 439 q 131 290 131 344 q 143 189 131 236 q 178 106 156 142 q 230 51 200 71 q 293 31 260 31 z "},"p":{"ha":586,"x_min":0,"x_max":586,"o":"m 293 585 q 406 562 353 585 q 500 499 460 539 q 563 405 540 458 q 586 290 586 351 q 567 176 586 229 q 513 83 549 124 q 421 20 476 43 q 293 -3 365 -3 q 129 47 203 -3 l 129 -68 l 129 -262 l 129 -296 l 0 -296 l 0 -262 l 0 324 l 0 551 l 0 585 l 32 585 l 129 585 l 129 551 l 129 535 q 206 572 165 558 q 293 585 247 585 m 293 31 q 356 44 326 31 q 408 88 386 57 q 442 167 429 118 q 456 290 456 217 q 449 392 456 344 q 423 474 442 439 q 373 531 404 510 q 293 551 342 551 q 203 517 249 551 q 129 425 158 483 l 129 324 l 129 156 q 203 65 158 99 q 293 31 249 31 z "},"q":{"ha":588,"x_min":0,"x_max":588,"o":"m 457 -35 l 457 47 q 294 -3 383 -3 q 166 20 221 -3 q 74 83 111 43 q 19 176 38 124 q 0 290 0 229 q 23 405 0 351 q 86 499 46 458 q 180 562 126 539 q 294 585 233 585 q 380 572 339 585 q 457 535 421 558 l 554 585 l 588 585 l 588 551 l 588 486 l 588 324 l 588 -35 l 588 -262 l 588 -296 l 457 -296 l 457 -262 l 457 -35 m 294 31 q 383 65 339 31 q 457 156 428 99 l 457 324 l 457 425 q 383 517 428 483 q 294 551 339 551 q 214 531 246 551 q 163 474 182 510 q 138 392 144 439 q 131 290 131 344 q 144 167 131 217 q 179 88 157 118 q 231 44 201 57 q 294 31 261 31 z "},"r":{"ha":424,"x_min":0,"x_max":424,"o":"m 261 585 q 305 584 286 585 q 342 577 324 583 q 380 558 361 571 q 424 519 399 544 l 392 421 l 358 421 q 351 469 358 446 q 331 510 343 492 q 300 540 318 529 q 261 551 282 551 q 183 503 213 551 q 131 356 154 454 l 131 324 l 131 258 l 131 156 l 131 47 l 131 31 l 131 -3 l 0 -3 l 0 31 l 0 324 l 0 551 l 0 585 l 33 585 l 131 585 l 131 551 l 131 535 l 131 486 q 190 560 154 535 q 261 585 225 585 z "},"s":{"ha":358,"x_min":0,"x_max":358,"o":"m 261 324 q 306 292 288 306 q 337 261 325 278 q 353 221 349 244 q 358 161 358 197 q 344 107 358 136 q 306 53 331 78 q 249 13 282 29 q 181 -3 217 -3 q 97 1 144 -3 q 0 31 49 6 l 0 161 l 32 161 q 43 113 32 136 q 73 72 54 90 q 115 42 92 53 q 163 31 138 31 q 208 38 185 31 q 251 59 232 46 q 281 90 269 72 q 293 128 293 108 q 278 169 293 153 q 240 200 264 186 q 188 228 217 214 q 131 258 158 242 q 53 339 74 292 q 32 454 32 386 q 44 506 32 482 q 76 548 56 531 q 124 575 97 565 q 183 585 151 585 q 219 583 200 585 q 258 578 239 582 q 295 568 278 575 q 325 551 313 561 l 325 454 l 293 454 q 196 551 293 551 q 168 549 183 551 q 139 537 153 546 q 116 512 125 528 q 107 471 107 496 q 117 419 107 438 q 147 388 128 401 q 195 362 167 375 q 261 324 224 349 z "},"t":{"ha":326,"x_min":0,"x_max":326,"o":"m 196 551 l 196 92 q 214 49 196 67 q 257 31 232 31 q 278 31 271 31 q 292 34 286 31 q 306 44 299 38 q 326 63 314 50 l 326 31 q 269 0 297 1 q 211 -3 240 -1 q 108 35 150 -4 q 65 135 65 74 l 65 551 l 0 551 l 0 585 l 65 585 l 65 682 q 118 724 97 697 q 149 785 139 751 l 163 844 l 196 844 l 196 585 l 261 585 l 293 585 l 326 585 l 326 551 l 293 551 l 261 551 l 196 551 z "},"u":{"ha":521,"x_min":0,"x_max":521,"o":"m 390 31 l 390 53 q 310 12 354 26 q 217 -3 265 -3 l 200 -3 q 122 13 158 -3 q 58 56 85 29 q 15 120 31 83 q 0 199 0 157 l 0 356 l 0 551 l 0 585 l 129 585 l 129 551 l 129 154 q 165 67 129 103 q 253 31 201 31 q 351 70 311 31 q 390 167 390 110 l 390 258 l 390 290 l 390 454 l 390 551 l 390 585 l 521 585 l 521 551 l 521 454 l 521 389 l 521 356 l 521 301 l 521 258 l 521 161 l 521 128 l 521 31 l 521 -3 l 390 -3 l 390 31 z "},"v":{"ha":435,"x_min":0,"x_max":435,"o":"m 435 585 l 424 551 l 224 -3 l 194 -3 l 192 7 l 10 551 l 0 585 l 136 585 l 147 551 l 263 206 l 389 551 l 400 585 l 435 585 l 435 585 z "},"w":{"ha":761,"x_min":0,"x_max":761,"o":"m 761 585 l 749 551 l 549 -3 l 521 -3 l 517 7 l 518 7 l 381 358 l 222 -3 l 194 -3 l 192 7 l 10 551 l 0 585 l 136 585 l 147 551 l 263 206 l 422 585 l 451 585 l 589 206 l 714 551 l 726 585 l 761 585 l 761 585 z "},"x":{"ha":508,"x_min":0,"x_max":508,"o":"m 488 31 l 508 -3 l 356 -3 l 336 31 l 229 206 l 228 208 l 119 31 l 99 -3 l 61 -3 l 81 31 l 208 240 l 107 407 l 19 551 l 0 585 l 151 585 l 172 551 l 285 365 l 290 374 l 365 500 l 397 551 l 417 585 l 456 585 l 436 551 l 385 468 l 308 343 l 304 335 l 319 308 l 488 31 l 488 31 z "},"y":{"ha":553,"x_min":0,"x_max":553,"o":"m 518 585 l 553 585 l 175 -296 l 133 -296 l 260 -6 l 15 551 l 0 585 l 143 585 l 157 551 l 331 157 l 518 585 l 518 585 z "},"z":{"ha":392,"x_min":0,"x_max":392,"o":"m 392 31 l 392 -3 l 358 -3 l 261 -3 l 163 -3 l 149 -3 l 65 -3 l 8 -3 l 231 551 l 163 551 l 143 551 l 0 551 l 0 585 l 33 585 l 243 585 l 313 585 l 383 585 l 161 31 l 163 31 l 228 31 l 247 31 l 392 31 l 392 31 z "},"{":{"ha":565,"x_min":69,"x_max":496,"o":"m 496 -208 q 465 -208 485 -208 q 421 -206 444 -208 q 313 -183 367 -201 q 215 -134 258 -165 q 143 -58 171 -103 q 115 44 115 -14 q 124 128 115 89 q 144 204 133 168 q 165 274 156 240 q 175 338 175 307 q 160 399 175 371 q 118 433 146 426 q 94 439 106 438 q 69 442 82 440 l 69 494 q 94 500 82 497 q 121 510 107 503 q 164 561 153 528 q 175 629 175 594 q 165 686 175 656 q 144 751 156 717 q 124 822 133 786 q 115 893 115 857 q 152 997 115 954 q 242 1065 189 1039 q 355 1103 296 1090 q 460 1117 414 1115 q 479 1118 469 1118 q 496 1118 489 1118 l 496 1071 q 477 1070 488 1071 q 456 1068 467 1069 q 390 1051 426 1064 q 323 1015 354 1038 q 271 960 292 993 q 250 883 250 926 q 254 815 250 851 q 264 747 258 779 q 274 688 269 715 q 278 642 278 660 q 263 574 278 601 q 235 532 249 546 q 189 492 206 504 q 172 469 172 481 q 188 448 172 458 q 231 414 204 438 q 262 371 246 399 q 278 303 278 343 q 274 251 278 279 q 264 190 269 224 q 254 119 258 158 q 250 36 250 81 q 265 -40 250 -6 q 308 -100 281 -75 q 372 -140 335 -125 q 453 -160 410 -156 q 475 -161 464 -161 q 496 -161 486 -161 l 496 -208 z "},"|":{"ha":201,"x_min":69,"x_max":132,"o":"m 76 -328 q 69 -314 69 -328 l 69 1132 q 76 1144 69 1144 l 124 1144 q 132 1128 132 1144 l 132 -314 q 126 -328 132 -328 l 76 -328 z "},"}":{"ha":567,"x_min":69,"x_max":497,"o":"m 447 433 q 405 399 419 426 q 390 338 390 371 q 400 274 390 307 q 421 204 410 240 q 441 128 432 168 q 450 44 450 89 q 422 -58 450 -14 q 351 -134 394 -103 q 253 -183 307 -165 q 144 -206 199 -201 q 101 -208 121 -208 q 69 -208 82 -208 l 69 -161 q 90 -161 79 -161 q 113 -160 101 -161 q 193 -140 156 -156 q 258 -100 231 -125 q 300 -40 285 -75 q 315 36 315 -6 q 311 119 315 81 q 301 190 307 158 q 292 251 296 224 q 288 303 288 279 q 303 371 288 343 q 335 414 319 399 q 377 448 361 438 q 393 469 393 458 q 376 492 393 481 q 331 532 360 504 q 302 574 317 546 q 288 642 288 601 q 292 688 288 660 q 301 747 296 715 q 311 815 307 779 q 315 883 315 851 q 294 960 315 926 q 242 1015 274 993 q 176 1051 211 1038 q 111 1068 140 1064 q 89 1070 100 1069 q 69 1071 78 1071 l 69 1118 q 87 1118 78 1118 q 106 1117 96 1118 q 210 1103 151 1115 q 323 1065 269 1090 q 413 997 376 1039 q 450 893 450 954 q 441 822 450 857 q 421 751 432 786 q 400 686 410 717 q 390 629 390 656 q 401 561 390 594 q 444 510 413 528 q 471 500 458 503 q 497 494 483 497 l 497 442 q 472 439 483 440 q 447 433 460 438 z "},"~":{"ha":596,"x_min":69,"x_max":526,"o":"m 526 490 q 491 342 526 394 q 410 289 456 289 q 359 303 382 289 q 311 336 336 317 l 265 375 q 224 400 242 393 q 186 407 207 407 q 151 382 171 407 q 132 292 132 357 l 69 292 q 105 440 69 388 q 186 493 140 493 q 234 485 213 493 q 282 458 256 478 l 331 418 q 367 391 347 407 q 406 375 386 375 q 446 401 428 375 q 464 490 464 428 l 526 490 z "},"¡":{"ha":269,"x_min":69,"x_max":200,"o":"m 200 700 l 200 569 l 69 569 l 69 700 l 200 700 m 103 440 l 168 440 l 200 -310 l 69 -310 l 103 440 z "},"¢":{"ha":921,"x_min":69,"x_max":851,"o":"m 392 81 q 542 35 460 35 q 696 78 619 35 q 765 129 733 100 q 819 197 796 158 l 851 197 q 706 54 789 106 q 510 1 619 1 q 372 25 439 1 l 351 -32 l 279 -32 q 282 -18 276 -26 l 308 57 q 298 63 303 60 q 289 69 293 67 q 129 253 190 138 q 69 507 69 367 q 129 761 69 647 q 289 943 189 874 q 510 1011 386 1011 q 640 988 572 1011 l 664 1053 l 738 1053 q 736 1042 738 1046 l 706 957 q 819 881 771 924 l 819 686 l 786 686 l 786 725 q 739 876 786 808 q 694 925 719 904 l 392 81 m 632 963 q 622 967 626 965 q 613 969 618 968 q 542 979 579 979 q 300 842 400 979 q 200 507 200 701 q 300 174 200 311 q 335 131 317 149 l 632 963 z "},"£":{"ha":688,"x_min":51,"x_max":635,"o":"m 78 0 l 78 33 q 204 318 204 194 q 161 457 204 371 l 51 457 l 51 497 l 143 497 q 104 668 104 592 q 188 904 104 821 q 396 986 272 986 q 469 983 433 986 q 535 976 506 981 q 581 967 564 972 q 599 954 599 961 l 599 844 l 574 844 q 519 911 569 888 q 399 935 469 935 q 271 868 329 935 q 211 703 211 801 q 221 595 213 646 q 249 497 229 544 l 492 497 l 492 457 l 265 457 q 311 322 311 379 q 201 68 311 214 l 474 68 q 601 157 563 68 l 635 157 l 565 0 l 78 0 z "},"¤":{"ha":688,"x_min":83,"x_max":604,"o":"m 344 336 q 434 366 394 336 q 489 447 474 396 q 494 486 494 464 q 482 544 494 515 q 450 593 469 574 q 401 624 429 613 q 343 636 372 636 q 285 624 314 636 q 238 593 257 613 q 206 544 218 574 q 193 486 193 514 q 206 428 193 457 q 238 379 218 399 q 344 336 281 336 m 469 306 q 412 275 444 286 q 344 264 379 264 q 278 275 311 264 q 217 306 244 286 l 138 225 l 83 281 l 163 360 q 133 419 144 386 q 122 486 122 451 q 133 553 122 519 q 163 613 143 586 l 83 693 l 138 747 l 217 667 q 277 697 243 685 q 344 708 311 708 q 469 667 413 708 l 550 747 l 604 693 l 525 613 q 555 553 544 585 q 565 486 565 521 q 555 419 565 451 q 525 360 544 388 l 604 281 l 550 225 l 469 306 z "},"¥":{"ha":801,"x_min":0,"x_max":801,"o":"m 349 519 l 21 975 l 0 1007 l 157 1007 l 181 975 l 468 568 l 739 975 l 763 1007 l 801 1007 l 779 975 l 479 519 l 479 431 l 703 431 l 703 336 l 479 336 l 479 250 l 703 250 l 703 156 l 479 156 l 479 -3 l 349 -3 l 349 156 l 111 156 l 111 250 l 349 250 l 349 336 l 111 336 l 111 431 l 349 431 l 349 519 z "},"¦":{"ha":688,"x_min":289,"x_max":399,"o":"m 289 -283 l 289 251 l 399 251 l 399 -283 l 289 -283 m 289 535 l 289 1071 l 399 1071 l 399 535 l 289 535 z "},"§":{"ha":688,"x_min":143,"x_max":538,"o":"m 363 322 q 435 370 408 336 q 463 451 463 404 l 461 457 q 460 465 460 461 q 458 472 460 469 q 392 547 446 507 q 318 564 358 564 q 245 538 272 564 q 218 469 218 513 q 363 322 218 396 m 308 -108 q 266 -107 289 -108 q 211 -100 243 -106 q 154 -75 154 -89 l 154 39 l 185 39 q 232 -39 186 -8 q 317 -68 272 -67 q 424 -29 381 -65 q 467 69 467 7 q 282 231 467 143 q 180 309 211 267 q 149 414 149 351 q 190 542 149 494 q 300 601 231 590 l 276 613 q 175 691 207 649 q 143 796 143 733 q 191 931 143 882 q 322 986 239 981 l 333 986 q 376 984 353 986 q 429 976 400 982 q 486 953 486 965 l 486 839 l 456 839 q 408 915 453 886 q 363 938 385 931 q 313 946 340 946 q 240 919 267 946 q 213 851 213 893 q 381 693 213 774 q 500 610 465 654 q 532 500 532 565 q 474 335 532 399 q 415 297 446 311 q 506 228 478 264 q 538 118 538 181 q 479 -47 538 17 q 317 -108 406 -108 l 308 -108 z "},"¨":{"ha":547,"x_min":69,"x_max":478,"o":"m 347 778 l 347 908 l 478 908 l 478 778 l 347 778 m 69 907 l 200 907 l 200 776 l 69 776 l 69 907 z "},"©":{"ha":1136,"x_min":68,"x_max":1068,"o":"m 568 29 q 892 163 758 29 q 1026 488 1026 297 q 892 813 1026 678 q 568 947 757 947 q 243 813 381 947 q 108 488 108 678 q 243 163 108 297 q 568 29 378 29 m 568 -12 q 214 135 361 -12 q 68 488 68 281 q 214 840 68 694 q 568 988 361 988 q 921 840 775 988 q 1068 488 1068 693 q 921 135 1068 282 q 568 -12 775 -12 m 585 163 q 687 192 636 163 q 769 271 738 221 l 792 271 q 694 176 751 211 q 563 140 638 140 q 448 167 501 140 q 354 239 394 193 q 291 347 314 285 q 268 478 268 408 q 291 610 268 549 q 354 718 314 672 q 448 790 394 764 q 563 817 501 817 q 673 791 617 817 q 769 729 729 765 l 769 718 l 769 664 l 769 599 l 747 599 l 747 625 q 715 726 747 681 q 631 788 683 772 q 585 794 607 794 q 496 769 538 794 q 423 701 454 744 q 374 601 392 658 q 356 478 356 543 q 374 355 356 413 q 423 255 392 297 q 496 188 454 213 q 585 163 538 163 z "},"ª":{"ha":471,"x_min":69,"x_max":401,"o":"m 318 678 q 274 631 299 650 q 215 613 250 613 q 101 644 133 611 q 69 729 69 678 q 94 794 69 771 q 155 827 118 817 q 235 837 192 838 q 318 831 279 836 l 318 868 l 318 911 q 301 953 318 936 q 258 971 283 971 l 257 971 q 234 969 249 971 q 202 960 219 968 q 166 936 185 953 q 132 889 147 919 l 111 889 l 111 950 q 190 987 158 982 q 236 992 221 992 q 358 961 314 992 q 401 868 401 931 l 401 826 l 401 806 l 401 764 l 401 640 l 401 619 l 378 619 q 335 637 353 619 q 318 678 318 654 m 215 632 q 258 647 239 632 q 290 682 276 661 q 311 726 304 703 q 318 764 318 749 l 318 806 q 258 813 288 814 q 205 803 228 813 q 167 773 182 793 q 153 722 153 753 q 167 660 153 688 q 215 632 181 632 z "},"«":{"ha":1311,"x_min":118,"x_max":794,"o":"m 350 119 l 118 325 l 350 531 l 360 531 l 360 506 l 221 325 l 360 144 l 360 119 l 350 119 m 785 119 l 553 325 l 785 531 l 794 531 l 794 506 l 656 325 l 794 144 l 794 119 l 785 119 z "},"¬":{"ha":688,"x_min":58,"x_max":629,"o":"m 561 186 l 561 453 l 58 453 l 58 521 l 629 521 l 629 188 l 628 186 l 561 186 z "},"®":{"ha":1139,"x_min":69,"x_max":1069,"o":"m 569 29 q 893 163 760 29 q 1028 488 1028 297 q 893 813 1028 678 q 569 947 758 947 q 244 813 382 947 q 110 488 110 678 q 244 163 110 297 q 569 29 379 29 m 569 -12 q 215 135 363 -12 q 69 488 69 281 q 215 840 69 694 q 569 988 363 988 q 922 840 776 988 q 1069 488 1069 693 q 922 135 1069 282 q 569 -12 776 -12 m 772 242 l 690 242 l 625 344 l 560 450 l 476 450 l 476 432 l 476 260 l 476 242 l 407 242 l 407 260 l 407 761 l 407 778 l 424 778 l 476 778 l 571 778 q 635 765 606 778 q 688 729 665 751 q 723 677 710 707 q 736 614 736 647 q 707 522 736 563 q 633 463 678 481 l 761 260 l 772 242 m 543 467 q 631 503 594 467 q 667 590 667 539 l 667 638 q 631 725 667 689 q 543 761 594 761 l 476 761 l 476 519 l 476 501 l 476 467 l 543 467 z "},"¯":{"ha":694,"x_min":172,"x_max":522,"o":"m 172 810 l 172 896 l 522 896 l 522 810 l 172 810 z "},"°":{"ha":482,"x_min":69,"x_max":413,"o":"m 243 692 q 325 726 292 692 q 358 808 358 760 q 349 854 358 833 q 324 891 340 875 q 288 916 308 907 q 243 925 267 925 q 198 916 219 925 q 160 891 176 907 q 135 854 144 875 q 125 808 125 833 q 160 725 125 758 q 243 692 194 692 m 240 635 q 119 685 167 635 q 69 807 69 735 q 119 928 69 878 q 242 978 171 978 q 363 928 313 978 q 413 807 413 878 q 363 686 413 736 q 240 635 311 635 z "},"±":{"ha":594,"x_min":17,"x_max":588,"o":"m 508 517 q 522 512 518 517 q 525 492 525 507 l 525 404 q 521 390 525 393 q 507 388 517 388 l 329 388 l 329 192 l 264 192 l 264 388 l 83 388 q 72 388 75 386 q 69 400 69 390 l 69 501 q 72 515 69 513 q 83 517 75 517 l 264 517 l 264 713 l 329 713 l 329 517 l 508 517 m 17 26 l 17 121 l 586 121 l 588 121 l 588 26 l 17 26 z "},"²":{"ha":413,"x_min":69,"x_max":332,"o":"m 332 604 l 326 556 l 311 556 l 69 556 l 69 604 l 199 749 q 238 810 225 785 q 257 856 251 835 q 263 896 263 876 q 263 942 263 915 q 262 963 263 947 q 255 996 261 979 q 235 1025 249 1013 q 199 1038 222 1038 q 149 1024 168 1038 q 120 992 131 1011 q 106 950 110 972 q 101 910 101 928 l 86 910 q 118 1018 86 982 q 199 1054 150 1054 q 289 1020 251 1054 q 326 925 326 986 q 310 826 326 871 q 247 733 294 781 l 101 604 l 263 604 l 332 604 z "},"³":{"ha":418,"x_min":69,"x_max":349,"o":"m 69 668 l 85 668 q 124 607 97 632 q 186 582 150 582 q 262 612 235 582 q 289 679 289 642 q 278 728 289 706 q 249 768 267 751 q 208 796 231 785 q 165 813 186 807 l 165 829 q 201 840 182 832 q 237 862 221 849 q 264 892 253 875 q 275 929 275 908 q 256 987 275 964 q 203 1010 236 1010 q 138 991 164 1010 q 101 942 113 972 l 85 942 q 99 980 89 960 q 127 1017 110 1000 q 169 1044 144 1033 q 222 1054 193 1054 q 269 1044 250 1054 q 301 1021 289 1035 q 319 990 314 1007 q 325 960 325 974 q 300 884 325 914 q 247 838 275 854 q 283 822 265 833 q 316 794 301 810 q 340 757 331 778 q 349 713 349 736 q 335 649 349 678 q 297 600 321 621 q 240 567 272 579 q 174 556 208 556 q 123 570 143 556 q 91 604 103 585 q 74 642 79 624 q 69 668 69 660 z "},"´":{"ha":347,"x_min":71,"x_max":272,"o":"m 71 822 q 103 871 88 846 q 133 916 117 892 q 165 963 150 940 q 207 987 181 985 q 253 969 233 989 q 269 924 272 950 q 243 882 267 897 q 197 851 221 867 q 151 821 172 835 q 103 789 126 806 q 97 792 103 788 q 85 803 92 797 q 75 815 79 810 q 71 822 71 821 z "},"µ":{"ha":863,"x_min":168,"x_max":694,"o":"m 300 592 l 300 157 q 336 69 300 106 q 424 33 372 33 q 522 74 482 33 q 563 171 563 114 l 563 592 l 694 592 l 694 0 l 563 0 l 563 54 q 388 0 485 0 l 371 0 q 299 13 332 0 l 299 -431 l 168 -431 l 168 592 l 300 592 z "},"¶":{"ha":694,"x_min":63,"x_max":631,"o":"m 489 0 l 489 926 l 376 926 l 376 0 l 318 0 l 318 500 q 131 571 199 507 q 63 736 63 635 q 81 833 63 789 q 135 908 100 876 q 219 956 169 939 q 329 974 268 974 l 631 974 l 631 926 l 544 926 l 544 0 l 489 0 z "},"·":{"ha":344,"x_min":97,"x_max":247,"o":"m 172 432 q 119 453 140 432 q 97 507 97 475 q 119 559 97 538 q 172 581 140 581 q 226 559 204 581 q 247 507 247 538 q 225 453 247 475 q 172 432 203 432 z "},"¸":{"ha":694,"x_min":244,"x_max":521,"o":"m 372 -283 q 244 -261 297 -283 l 244 -197 q 347 -232 300 -232 q 431 -172 431 -232 q 402 -131 431 -143 q 328 -118 374 -118 q 317 -118 322 -118 q 306 -119 313 -118 l 338 0 l 381 0 l 356 -71 q 376 -68 367 -68 q 397 -67 386 -68 q 488 -93 454 -67 q 521 -172 521 -119 q 482 -253 521 -224 q 372 -283 443 -283 z "},"¹":{"ha":289,"x_min":69,"x_max":219,"o":"m 219 572 l 219 556 l 156 556 l 156 572 l 156 994 l 81 919 l 69 931 l 192 1054 l 203 1054 l 214 1054 l 219 1054 l 219 572 l 219 572 z "},"º":{"ha":365,"x_min":0,"x_max":365,"o":"m 183 1068 q 254 1048 221 1068 q 313 993 288 1028 q 351 911 338 958 q 365 811 365 864 q 351 711 365 758 q 313 629 338 664 q 254 574 288 594 q 183 554 221 554 q 113 574 146 554 q 54 629 79 594 q 15 711 29 664 q 0 811 0 758 q 15 911 0 864 q 54 993 29 958 q 113 1048 79 1028 q 183 1068 146 1068 m 183 569 q 228 588 207 569 q 266 640 250 607 q 291 717 282 674 q 300 811 300 761 q 291 905 300 861 q 266 981 282 949 q 228 1033 250 1014 q 183 1051 207 1051 q 138 1033 160 1051 q 101 981 117 1014 q 76 905 85 949 q 67 811 67 861 q 76 717 67 761 q 101 640 85 674 q 138 588 117 607 q 183 569 160 569 z "},"»":{"ha":1311,"x_min":68,"x_max":744,"o":"m 68 119 l 68 144 l 207 325 l 68 506 l 68 531 l 78 531 l 310 325 l 78 119 l 68 119 m 503 119 l 503 144 l 642 325 l 503 506 l 503 531 l 513 531 l 744 325 l 513 119 l 503 119 z "},"¼":{"ha":947,"x_min":69,"x_max":878,"o":"m 219 556 l 156 556 l 156 572 l 156 994 l 81 919 l 69 931 l 192 1054 l 203 1054 l 214 1054 l 219 1054 l 219 572 l 219 556 m 682 1053 q 681 1042 682 1046 l 296 -32 l 224 -32 q 226 -18 221 -26 l 608 1053 l 682 1053 m 878 144 l 846 144 l 846 0 l 781 0 l 781 144 l 603 144 l 588 144 l 588 149 l 588 151 l 815 500 l 832 500 l 835 500 l 846 500 l 846 210 l 878 210 l 878 144 m 781 210 l 781 418 l 644 210 l 781 210 z "},"½":{"ha":953,"x_min":69,"x_max":867,"o":"m 219 556 l 156 556 l 156 572 l 156 994 l 81 919 l 69 931 l 192 1054 l 203 1054 l 214 1054 l 219 1054 l 219 572 l 219 556 m 682 1053 q 681 1042 682 1046 l 296 -32 l 224 -32 q 226 -18 221 -26 l 608 1053 l 682 1053 m 867 -3 l 851 -3 l 610 -3 l 610 46 l 739 190 q 778 251 765 226 q 797 297 792 276 q 803 338 803 318 q 803 383 803 357 q 802 405 803 389 q 795 438 801 421 q 776 467 789 454 q 739 479 763 479 q 690 466 708 479 q 660 433 671 453 q 646 392 650 414 q 642 351 642 369 l 626 351 q 658 460 626 424 q 739 496 690 496 q 829 462 792 496 q 867 367 867 428 q 851 267 867 313 q 788 175 835 222 l 642 46 l 867 46 l 867 -3 z "},"¾":{"ha":933,"x_min":69,"x_max":864,"o":"m 608 1053 l 226 -18 q 224 -32 221 -26 l 296 -32 l 681 1042 q 682 1053 682 1046 l 608 1053 m 864 210 l 832 210 l 832 500 l 821 500 l 818 500 l 801 500 l 574 151 l 574 149 l 574 144 l 589 144 l 767 144 l 767 0 l 832 0 l 832 144 l 864 144 l 864 210 m 631 210 l 767 418 l 767 210 l 631 210 m 69 668 l 85 668 q 124 607 97 632 q 186 582 150 582 q 262 612 235 582 q 289 679 289 642 q 278 728 289 706 q 249 768 267 751 q 208 796 231 785 q 165 813 186 807 l 165 829 q 201 840 182 832 q 237 862 221 849 q 264 892 253 875 q 275 929 275 908 q 256 987 275 964 q 203 1010 236 1010 q 138 991 164 1010 q 101 942 113 972 l 85 942 q 99 980 89 960 q 127 1017 110 1000 q 169 1044 144 1033 q 222 1054 193 1054 q 269 1044 250 1054 q 301 1021 289 1035 q 319 990 314 1007 q 325 960 325 974 q 300 884 325 914 q 247 838 275 854 q 283 822 265 833 q 316 794 301 810 q 340 757 331 778 q 349 713 349 736 q 335 649 349 678 q 297 600 321 621 q 240 567 272 579 q 174 556 208 556 q 123 570 143 556 q 91 604 103 585 q 74 642 79 624 q 69 668 69 660 z "},"¿":{"ha":563,"x_min":69,"x_max":493,"o":"m 436 -361 q 375 -352 411 -361 q 298 -325 339 -343 q 216 -279 257 -307 q 142 -213 175 -251 q 90 -126 110 -175 q 69 -18 69 -78 q 108 109 69 57 q 197 193 146 161 q 298 240 247 225 q 374 256 349 254 q 383 268 383 256 l 383 440 q 392 451 383 451 l 414 451 q 422 440 422 451 l 464 153 q 451 129 464 142 q 431 119 438 117 q 408 123 421 121 q 380 126 394 125 q 353 127 365 126 q 332 128 340 128 q 294 124 317 128 q 251 110 272 121 q 216 76 231 99 q 201 17 201 54 q 217 -65 201 -22 q 263 -144 233 -108 q 335 -202 293 -179 q 431 -224 378 -225 q 480 -244 467 -222 q 493 -299 493 -267 q 491 -313 493 -303 q 483 -334 489 -324 q 465 -353 476 -344 q 436 -361 454 -361 m 464 700 l 464 569 l 333 569 l 333 700 l 464 700 z "},"À":{"ha":747,"x_min":0,"x_max":747,"o":"m 450 1086 q 445 1079 450 1085 q 434 1067 440 1074 q 423 1056 428 1061 q 417 1053 418 1051 q 368 1085 393 1069 q 323 1115 347 1099 q 276 1146 299 1131 q 250 1188 253 1161 q 267 1233 247 1214 q 313 1251 286 1253 q 356 1226 340 1249 q 386 1180 371 1204 q 417 1135 401 1156 q 450 1086 432 1110 m 213 490 l 47 35 l 49 35 l 36 1 l 1 1 l 0 1 l 13 35 l 378 1044 l 399 1044 l 660 263 l 747 1 l 611 1 l 524 263 l 521 268 l 447 490 l 213 490 m 224 522 l 436 522 l 335 829 l 224 522 z "},"Á":{"ha":747,"x_min":0,"x_max":747,"o":"m 335 1086 q 367 1135 351 1110 q 397 1180 381 1156 q 429 1226 414 1204 q 471 1251 444 1249 q 517 1233 497 1253 q 533 1188 536 1214 q 507 1146 531 1161 q 460 1115 485 1131 q 415 1085 436 1099 q 367 1053 390 1069 q 361 1056 367 1051 q 349 1067 356 1061 q 339 1079 343 1074 q 335 1086 335 1085 m 213 490 l 47 35 l 49 35 l 36 1 l 1 1 l 0 1 l 13 35 l 378 1044 l 399 1044 l 660 263 l 747 1 l 611 1 l 524 263 l 521 268 l 447 490 l 213 490 m 224 522 l 436 522 l 335 829 l 224 522 z "},"Â":{"ha":747,"x_min":0,"x_max":747,"o":"m 306 1049 l 244 1047 l 379 1221 l 408 1221 l 544 1047 l 476 1047 l 394 1132 l 390 1132 l 306 1049 m 447 490 l 213 490 l 47 35 l 49 35 l 36 1 l 1 1 l 0 1 l 13 35 l 378 1044 l 399 1044 l 660 263 l 747 1 l 611 1 l 524 263 l 521 268 l 447 490 m 335 829 l 224 522 l 436 522 l 335 829 z "},"Ã":{"ha":747,"x_min":0,"x_max":747,"o":"m 597 1224 q 569 1095 597 1140 q 504 1050 540 1050 q 463 1062 482 1050 q 425 1090 444 1074 l 389 1124 q 357 1145 371 1139 q 326 1151 343 1151 q 299 1130 314 1151 q 283 1051 283 1108 l 233 1051 q 262 1180 233 1135 q 326 1225 290 1225 q 365 1219 347 1225 q 401 1196 382 1213 l 442 1161 q 469 1137 454 1150 q 501 1124 485 1124 q 533 1147 519 1124 q 547 1224 547 1169 l 597 1224 m 447 490 l 521 268 l 524 263 l 611 1 l 747 1 l 660 263 l 399 1044 l 378 1044 l 13 35 l 0 1 l 1 1 l 36 1 l 49 35 l 47 35 l 213 490 l 447 490 m 335 829 l 436 522 l 224 522 l 335 829 z "},"Ä":{"ha":747,"x_min":0,"x_max":747,"o":"m 444 1083 l 444 1214 l 575 1214 l 575 1083 l 444 1083 m 167 1213 l 297 1213 l 297 1082 l 167 1082 l 167 1213 m 447 490 l 213 490 l 47 35 l 49 35 l 36 1 l 1 1 l 0 1 l 13 35 l 378 1044 l 399 1044 l 660 263 l 747 1 l 611 1 l 524 263 l 521 268 l 447 490 m 335 829 l 224 522 l 436 522 l 335 829 z "},"Å":{"ha":747,"x_min":0,"x_max":747,"o":"m 382 1235 q 444 1209 418 1235 q 469 1147 469 1183 q 444 1085 469 1111 q 382 1060 418 1060 q 320 1085 346 1060 q 294 1147 294 1111 q 320 1209 294 1183 q 382 1235 346 1235 m 385 1107 q 414 1119 401 1107 q 426 1147 426 1131 q 414 1177 426 1165 q 385 1189 401 1189 q 355 1177 367 1189 q 343 1147 343 1165 q 355 1119 343 1131 q 385 1107 367 1107 m 213 490 l 47 35 l 49 35 l 36 1 l 1 1 l 0 1 l 13 35 l 378 1044 l 399 1044 l 660 263 l 747 1 l 611 1 l 524 263 l 521 268 l 447 490 l 213 490 m 224 522 l 436 522 l 335 829 l 224 522 z "},"Æ":{"ha":1165,"x_min":0,"x_max":1165,"o":"m 224 522 l 436 522 l 335 829 l 224 522 m 524 263 l 521 268 l 447 490 l 213 490 l 47 35 l 49 35 l 36 1 l 0 1 l 13 35 l 378 1044 l 399 1044 l 611 408 l 611 1011 l 1165 1011 l 1165 979 l 742 979 l 742 556 l 1165 556 l 1165 522 l 742 522 l 742 35 l 1165 35 l 1165 1 l 611 1 l 524 263 z "},"Ç":{"ha":782,"x_min":0,"x_max":782,"o":"m 472 35 q 626 78 550 35 q 695 129 664 100 q 750 197 726 158 l 782 197 q 636 54 719 106 q 440 1 550 1 q 219 69 317 1 q 60 253 121 138 q 0 507 0 367 q 60 761 0 647 q 219 943 119 874 q 440 1011 317 1011 q 606 974 519 1011 q 750 881 692 932 l 750 686 l 717 686 l 717 725 q 669 876 717 808 q 543 969 622 944 q 472 979 510 979 q 231 842 331 979 q 131 507 131 701 q 231 174 131 311 q 472 35 331 35 m 456 -283 q 328 -261 381 -283 l 328 -197 q 431 -232 383 -232 q 514 -172 515 -232 q 486 -131 514 -143 q 411 -118 457 -118 q 401 -118 406 -118 q 389 -119 396 -118 l 421 0 l 464 0 l 439 -71 l 481 -67 q 571 -93 539 -67 q 604 -172 604 -121 q 565 -253 604 -222 q 456 -283 526 -283 z "},"È":{"ha":554,"x_min":0,"x_max":554,"o":"m 353 1072 q 348 1065 353 1071 q 337 1053 343 1060 q 326 1042 331 1047 q 319 1039 321 1038 q 271 1071 296 1056 q 226 1101 250 1085 q 179 1132 201 1117 q 153 1174 156 1147 q 169 1219 150 1200 q 216 1237 189 1239 q 258 1213 243 1235 q 289 1166 274 1190 q 319 1121 304 1142 q 353 1072 335 1096 m 131 979 l 131 556 l 164 556 l 196 556 l 244 556 l 326 556 l 392 556 l 554 556 l 554 522 l 392 522 l 326 522 l 244 522 l 196 522 l 164 522 l 131 522 l 131 490 l 131 425 l 131 35 l 229 35 l 392 35 l 554 35 l 554 1 l 131 1 l 0 1 l 0 35 l 0 979 l 0 1011 l 131 1011 l 554 1011 l 554 979 l 392 979 l 229 979 l 131 979 z "},"É":{"ha":554,"x_min":0,"x_max":554,"o":"m 238 1072 q 269 1121 254 1096 q 300 1166 283 1142 q 332 1213 317 1190 q 374 1237 347 1235 q 419 1219 400 1239 q 436 1174 439 1200 q 410 1132 433 1147 q 363 1101 388 1117 q 318 1071 339 1085 q 269 1039 293 1056 q 264 1042 269 1038 q 252 1053 258 1047 q 242 1065 246 1060 q 238 1072 238 1071 m 131 979 l 131 556 l 164 556 l 196 556 l 244 556 l 326 556 l 392 556 l 554 556 l 554 522 l 392 522 l 326 522 l 244 522 l 196 522 l 164 522 l 131 522 l 131 490 l 131 425 l 131 35 l 229 35 l 392 35 l 554 35 l 554 1 l 131 1 l 0 1 l 0 35 l 0 979 l 0 1011 l 131 1011 l 554 1011 l 554 979 l 392 979 l 229 979 l 131 979 z "},"Ê":{"ha":554,"x_min":0,"x_max":554,"o":"m 194 1049 l 133 1047 l 268 1221 l 297 1221 l 433 1047 l 365 1047 l 283 1132 l 279 1132 l 194 1049 m 229 979 l 131 979 l 131 556 l 164 556 l 196 556 l 244 556 l 326 556 l 392 556 l 554 556 l 554 522 l 392 522 l 326 522 l 244 522 l 196 522 l 164 522 l 131 522 l 131 490 l 131 425 l 131 35 l 229 35 l 392 35 l 554 35 l 554 1 l 131 1 l 0 1 l 0 35 l 0 979 l 0 1011 l 131 1011 l 554 1011 l 554 979 l 392 979 l 229 979 z "},"Ë":{"ha":554,"x_min":0,"x_max":554,"o":"m 375 1083 l 375 1214 l 506 1214 l 506 1083 l 375 1083 m 97 1213 l 228 1213 l 228 1082 l 97 1082 l 97 1213 m 229 979 l 131 979 l 131 556 l 164 556 l 196 556 l 244 556 l 326 556 l 392 556 l 554 556 l 554 522 l 392 522 l 326 522 l 244 522 l 196 522 l 164 522 l 131 522 l 131 490 l 131 425 l 131 35 l 229 35 l 392 35 l 554 35 l 554 1 l 131 1 l 0 1 l 0 35 l 0 979 l 0 1011 l 131 1011 l 554 1011 l 554 979 l 392 979 l 229 979 z "},"Ì":{"ha":236,"x_min":6,"x_max":236,"o":"m 208 1072 q 203 1065 208 1071 q 192 1053 199 1060 q 181 1042 186 1047 q 175 1039 176 1038 q 126 1071 151 1056 q 81 1101 106 1085 q 35 1132 57 1117 q 8 1174 11 1147 q 25 1219 6 1200 q 72 1237 44 1239 q 114 1213 99 1235 q 144 1166 129 1190 q 175 1121 160 1142 q 208 1072 190 1096 m 236 1 l 106 1 l 106 35 l 106 979 l 106 1011 l 236 1011 l 236 979 l 236 653 l 236 556 l 236 522 l 236 490 l 236 425 l 236 35 l 236 1 z "},"Í":{"ha":228,"x_min":0,"x_max":222,"o":"m 21 1072 q 53 1121 38 1096 q 83 1166 67 1142 q 115 1213 100 1190 q 157 1237 131 1235 q 203 1219 183 1239 q 219 1174 222 1200 q 193 1132 217 1147 q 147 1101 171 1117 q 101 1071 122 1085 q 53 1039 76 1056 q 47 1042 53 1038 q 35 1053 42 1047 q 25 1065 29 1060 q 21 1072 21 1071 m 131 1 l 0 1 l 0 35 l 0 979 l 0 1011 l 131 1011 l 131 979 l 131 653 l 131 556 l 131 522 l 131 490 l 131 425 l 131 35 l 131 1 z "},"Î":{"ha":328,"x_min":8,"x_max":308,"o":"m 69 1049 l 8 1047 l 143 1221 l 172 1221 l 308 1047 l 240 1047 l 158 1132 l 154 1132 l 69 1049 m 236 35 l 236 1 l 106 1 l 106 35 l 106 979 l 106 1011 l 236 1011 l 236 979 l 236 653 l 236 556 l 236 522 l 236 490 l 236 425 l 236 35 z "},"Ï":{"ha":328,"x_min":-14,"x_max":339,"o":"m 208 1083 l 208 1214 l 339 1214 l 339 1083 l 208 1083 m -14 1213 l 117 1213 l 117 1082 l -14 1082 l -14 1213 m 236 35 l 236 1 l 106 1 l 106 35 l 106 979 l 106 1011 l 236 1011 l 236 979 l 236 653 l 236 556 l 236 522 l 236 490 l 236 425 l 236 35 z "},"Ð":{"ha":844,"x_min":0,"x_max":844,"o":"m 253 33 l 353 33 q 535 76 465 33 q 644 189 606 122 q 699 339 683 257 q 713 493 713 417 l 713 526 q 699 682 713 604 q 644 832 683 763 q 597 894 625 867 q 535 943 569 921 q 353 986 465 986 l 253 986 l 253 563 l 350 563 l 350 476 l 253 476 l 253 33 m 121 986 l 121 1019 l 383 1019 q 617 950 510 1019 q 783 767 721 879 q 844 526 844 653 l 844 493 q 783 254 844 368 q 617 71 721 139 q 383 0 510 0 l 121 -4 l 121 33 l 121 476 l 0 476 l 0 563 l 121 563 l 121 986 z "},"Ñ":{"ha":651,"x_min":0,"x_max":651,"o":"m 528 1224 q 499 1095 528 1140 q 435 1050 471 1050 q 394 1062 413 1050 q 356 1090 375 1074 l 319 1124 q 288 1145 301 1139 q 257 1151 274 1151 q 229 1130 244 1151 q 214 1051 214 1108 l 164 1051 q 192 1180 164 1135 q 257 1225 221 1225 q 295 1219 278 1225 q 332 1196 313 1213 l 372 1161 q 400 1137 385 1150 q 432 1124 415 1124 q 464 1147 450 1124 q 478 1224 478 1169 l 528 1224 m 651 1007 l 618 1007 l 618 975 l 618 813 l 618 243 l 138 1007 l 32 1007 l 0 1007 l 0 975 l 0 31 l 0 -3 l 32 -3 l 32 31 l 32 389 l 32 931 l 618 -1 l 618 -3 l 639 -35 l 651 -35 l 651 -3 l 651 192 l 651 714 l 651 975 l 651 1007 z "},"Ò":{"ha":1019,"x_min":0,"x_max":1019,"o":"m 510 1019 q 708 979 615 1019 q 870 869 801 939 q 979 708 939 800 q 1019 510 1019 615 q 979 311 1019 404 q 870 149 939 218 q 708 40 801 81 q 510 0 615 0 q 312 40 404 0 q 150 149 219 81 q 40 311 81 218 q 0 510 0 404 q 40 708 0 615 q 150 869 81 800 q 312 979 219 939 q 510 1019 404 1019 m 510 33 q 658 71 589 33 q 777 173 726 108 q 858 324 828 238 q 888 510 888 411 q 858 695 888 608 q 777 847 828 782 q 658 949 726 911 q 510 986 589 986 q 363 949 432 986 q 243 847 294 911 q 162 695 192 782 q 132 510 132 608 q 162 324 132 411 q 243 173 192 238 q 363 71 294 108 q 510 33 432 33 m 533 1072 q 528 1065 533 1071 q 517 1053 524 1060 q 506 1042 511 1047 q 500 1039 501 1038 q 451 1071 476 1056 q 406 1101 431 1085 q 360 1132 382 1117 q 333 1174 336 1147 q 350 1219 331 1200 q 397 1237 369 1239 q 439 1213 424 1235 q 469 1166 454 1190 q 500 1121 485 1142 q 533 1072 515 1096 z "},"Ó":{"ha":1019,"x_min":0,"x_max":1019,"o":"m 510 1019 q 708 979 615 1019 q 870 869 801 939 q 979 708 939 800 q 1019 510 1019 615 q 979 311 1019 404 q 870 149 939 218 q 708 40 801 81 q 510 0 615 0 q 312 40 404 0 q 150 149 219 81 q 40 311 81 218 q 0 510 0 404 q 40 708 0 615 q 150 869 81 800 q 312 979 219 939 q 510 1019 404 1019 m 510 33 q 658 71 589 33 q 777 173 726 108 q 858 324 828 238 q 888 510 888 411 q 858 695 888 608 q 777 847 828 782 q 658 949 726 911 q 510 986 589 986 q 363 949 432 986 q 243 847 294 911 q 162 695 192 782 q 132 510 132 608 q 162 324 132 411 q 243 173 192 238 q 363 71 294 108 q 510 33 432 33 m 460 1072 q 492 1121 476 1096 q 522 1166 506 1142 q 554 1213 539 1190 q 596 1237 569 1235 q 642 1219 622 1239 q 658 1174 661 1200 q 632 1132 656 1147 q 585 1101 610 1117 q 540 1071 561 1085 q 492 1039 515 1056 q 486 1042 492 1038 q 474 1053 481 1047 q 464 1065 468 1060 q 460 1072 460 1071 z "},"Ô":{"ha":1019,"x_min":0,"x_max":1019,"o":"m 510 1019 q 708 979 615 1019 q 870 869 801 939 q 979 708 939 800 q 1019 510 1019 615 q 979 311 1019 404 q 870 149 939 218 q 708 40 801 81 q 510 0 615 0 q 312 40 404 0 q 150 149 219 81 q 40 311 81 218 q 0 510 0 404 q 40 708 0 615 q 150 869 81 800 q 312 979 219 939 q 510 1019 404 1019 m 510 33 q 658 71 589 33 q 777 173 726 108 q 858 324 828 238 q 888 510 888 411 q 858 695 888 608 q 777 847 828 782 q 658 949 726 911 q 510 986 589 986 q 363 949 432 986 q 243 847 294 911 q 162 695 192 782 q 132 510 132 608 q 162 324 132 411 q 243 173 192 238 q 363 71 294 108 q 510 33 432 33 m 356 1047 l 490 1221 l 519 1221 l 656 1047 l 588 1047 l 506 1132 l 501 1132 l 417 1049 l 356 1047 z "},"Õ":{"ha":1019,"x_min":0,"x_max":1019,"o":"m 510 1019 q 312 979 404 1019 q 150 869 219 939 q 40 708 81 800 q 0 510 0 615 q 40 311 0 404 q 150 149 81 218 q 312 40 219 81 q 510 0 404 0 q 708 40 615 0 q 870 149 801 81 q 979 311 939 218 q 1019 510 1019 404 q 979 708 1019 615 q 870 869 939 800 q 708 979 801 939 q 510 1019 615 1019 m 510 33 q 363 71 432 33 q 243 173 294 108 q 162 324 192 238 q 132 510 132 411 q 162 695 132 608 q 243 847 192 782 q 363 949 294 911 q 510 986 432 986 q 658 949 589 986 q 777 847 726 911 q 858 695 828 782 q 888 510 888 608 q 858 324 888 411 q 777 173 828 238 q 658 71 726 108 q 510 33 589 33 m 694 1224 q 666 1095 694 1140 q 601 1050 638 1050 q 560 1062 579 1050 q 522 1090 542 1074 l 486 1124 q 454 1145 468 1139 q 424 1151 440 1151 q 396 1130 411 1151 q 381 1051 381 1108 l 331 1051 q 359 1180 331 1135 q 424 1225 388 1225 q 462 1219 444 1225 q 499 1196 479 1213 l 539 1161 q 567 1137 551 1150 q 599 1124 582 1124 q 631 1147 617 1124 q 644 1224 644 1169 l 694 1224 z "},"Ö":{"ha":1019,"x_min":0,"x_max":1019,"o":"m 510 1019 q 708 979 615 1019 q 870 869 801 939 q 979 708 939 800 q 1019 510 1019 615 q 979 311 1019 404 q 870 149 939 218 q 708 40 801 81 q 510 0 615 0 q 312 40 404 0 q 150 149 219 81 q 40 311 81 218 q 0 510 0 404 q 40 708 0 615 q 150 869 81 800 q 312 979 219 939 q 510 1019 404 1019 m 510 33 q 658 71 589 33 q 777 173 726 108 q 858 324 828 238 q 888 510 888 411 q 858 695 888 608 q 777 847 828 782 q 658 949 726 911 q 510 986 589 986 q 363 949 432 986 q 243 847 294 911 q 162 695 192 782 q 132 510 132 608 q 162 324 132 411 q 243 173 192 238 q 363 71 294 108 q 510 33 432 33 m 569 1214 l 700 1214 l 700 1083 l 569 1083 l 569 1214 m 422 1213 l 422 1082 l 292 1082 l 292 1213 l 422 1213 z "},"×":{"ha":689,"x_min":110,"x_max":579,"o":"m 344 419 l 176 251 l 110 318 l 276 486 l 110 654 l 176 721 l 344 553 l 511 721 l 513 721 l 579 654 l 411 486 l 579 318 l 511 251 l 344 419 z "},"Ø":{"ha":1019,"x_min":0,"x_max":1019,"o":"m 619 967 q 510 986 565 986 q 243 847 353 986 q 132 510 132 707 q 243 174 132 314 q 276 135 258 153 q 311 103 293 118 l 619 967 m 372 64 q 510 33 433 33 q 778 174 667 33 q 888 510 888 313 q 778 847 888 708 q 683 935 735 900 l 372 64 m 292 49 q 254 69 272 57 q 69 253 139 138 q 0 510 0 368 q 69 767 0 649 q 150 871 104 825 q 254 951 196 917 q 510 1019 368 1019 q 633 1006 578 1019 l 650 1053 l 724 1053 q 722 1042 724 1046 l 701 983 q 735 969 718 976 q 767 951 751 961 q 951 767 882 882 q 1019 510 1019 651 q 951 253 1019 367 q 767 69 883 139 q 510 0 651 0 q 357 22 428 0 l 338 -32 l 265 -32 q 268 -18 263 -26 l 292 49 z "},"Ù":{"ha":685,"x_min":0,"x_max":685,"o":"m 408 1072 q 403 1065 408 1071 q 392 1053 399 1060 q 381 1042 386 1047 q 375 1039 376 1038 q 326 1071 351 1056 q 281 1101 306 1085 q 235 1132 257 1117 q 208 1174 211 1147 q 225 1219 206 1200 q 272 1237 244 1239 q 314 1213 299 1235 q 344 1166 329 1190 q 375 1121 360 1142 q 408 1072 390 1096 m 685 975 l 685 649 l 685 356 q 607 91 685 185 q 358 -3 529 -3 q 223 17 288 -3 q 108 79 158 36 q 29 190 58 122 q 0 356 0 258 l 0 779 l 0 975 l 0 1007 l 131 1007 l 131 975 l 131 779 l 131 356 q 155 195 131 258 q 217 96 179 132 q 301 45 254 60 q 392 31 347 31 q 487 49 440 31 q 570 108 533 68 q 629 208 607 147 q 651 356 651 269 l 651 649 l 651 975 l 651 1007 l 685 1007 l 685 975 z "},"Ú":{"ha":685,"x_min":0,"x_max":685,"o":"m 293 1072 q 325 1121 310 1096 q 356 1166 339 1142 q 388 1213 372 1190 q 429 1237 403 1235 q 475 1219 456 1239 q 492 1174 494 1200 q 465 1132 489 1147 q 419 1101 443 1117 q 374 1071 394 1085 q 325 1039 349 1056 q 319 1042 325 1038 q 308 1053 314 1047 q 297 1065 301 1060 q 293 1072 293 1071 m 685 975 l 685 649 l 685 356 q 607 91 685 185 q 358 -3 529 -3 q 223 17 288 -3 q 108 79 158 36 q 29 190 58 122 q 0 356 0 258 l 0 779 l 0 975 l 0 1007 l 131 1007 l 131 975 l 131 779 l 131 356 q 155 195 131 258 q 217 96 179 132 q 301 45 254 60 q 392 31 347 31 q 487 49 440 31 q 570 108 533 68 q 629 208 607 147 q 651 356 651 269 l 651 649 l 651 975 l 651 1007 l 685 1007 l 685 975 z "},"Û":{"ha":685,"x_min":0,"x_max":685,"o":"m 231 1047 l 365 1221 l 394 1221 l 531 1047 l 463 1047 l 381 1132 l 376 1132 l 292 1049 l 231 1047 m 685 975 l 685 649 l 685 356 q 607 91 685 185 q 358 -3 529 -3 q 223 17 288 -3 q 108 79 158 36 q 29 190 58 122 q 0 356 0 258 l 0 779 l 0 975 l 0 1007 l 131 1007 l 131 975 l 131 779 l 131 356 q 155 195 131 258 q 217 96 179 132 q 301 45 254 60 q 392 31 347 31 q 487 49 440 31 q 570 108 533 68 q 629 208 607 147 q 651 356 651 269 l 651 649 l 651 975 l 651 1007 l 685 1007 l 685 975 z "},"Ü":{"ha":685,"x_min":0,"x_max":685,"o":"m 444 1214 l 575 1214 l 575 1083 l 444 1083 l 444 1214 m 297 1213 l 297 1082 l 167 1082 l 167 1213 l 297 1213 m 685 975 l 685 649 l 685 356 q 607 91 685 185 q 358 -3 529 -3 q 223 17 288 -3 q 108 79 158 36 q 29 190 58 122 q 0 356 0 258 l 0 779 l 0 975 l 0 1007 l 131 1007 l 131 975 l 131 779 l 131 356 q 155 195 131 258 q 217 96 179 132 q 301 45 254 60 q 392 31 347 31 q 487 49 440 31 q 570 108 533 68 q 629 208 607 147 q 651 356 651 269 l 651 649 l 651 975 l 651 1007 l 685 1007 l 685 975 z "},"Ý":{"ha":801,"x_min":0,"x_max":801,"o":"m 446 1072 q 478 1121 463 1096 q 508 1166 492 1142 q 540 1213 525 1190 q 582 1237 556 1235 q 628 1219 608 1239 q 644 1174 647 1200 q 618 1132 642 1147 q 572 1101 596 1117 q 526 1071 547 1085 q 478 1039 501 1056 q 472 1042 478 1038 q 460 1053 467 1047 q 450 1065 454 1060 q 446 1072 446 1071 m 779 975 l 479 519 l 479 486 l 479 454 l 479 356 l 479 31 l 479 -3 l 349 -3 l 349 31 l 349 519 l 21 975 l 0 1007 l 157 1007 l 181 975 l 468 568 l 739 975 l 763 1007 l 801 1007 l 779 975 z "},"Þ":{"ha":493,"x_min":0,"x_max":493,"o":"m 103 31 q 63 58 82 40 l 63 -253 q 61 -260 63 -258 q 57 -264 58 -264 l 7 -264 q 1 -261 4 -264 q 0 -253 0 -260 l 0 883 q 1 892 0 890 q 7 894 4 894 l 54 894 q 63 881 63 894 l 63 560 l 65 560 l 65 528 q 231 592 115 592 q 424 506 353 592 q 493 296 493 419 q 424 88 493 174 q 231 0 353 0 q 103 31 154 0 m 63 394 l 63 90 q 82 73 72 81 q 104 58 92 65 q 197 33 147 33 q 317 111 271 33 q 361 296 361 189 q 314 483 361 407 q 197 560 267 560 q 107 515 147 560 q 65 394 65 469 l 63 394 z "},"ß":{"ha":1738,"x_min":0,"x_max":0,"o":""},"à":{"ha":522,"x_min":0,"x_max":522,"o":"m 325 628 q 320 621 325 626 q 309 609 315 615 q 298 598 303 603 q 292 594 293 593 q 243 626 268 611 q 198 656 222 640 q 151 688 174 672 q 125 729 128 703 q 142 775 122 756 q 188 792 161 794 q 231 768 215 790 q 261 722 246 746 q 292 676 276 697 q 325 628 307 651 m 392 94 q 322 20 363 50 q 229 -10 282 -10 q 120 4 164 -10 q 49 42 76 18 q 11 101 22 67 q 0 175 0 135 q 38 277 0 240 q 135 329 76 314 q 262 344 193 344 q 392 333 331 343 l 392 393 l 392 460 q 364 528 392 500 q 296 556 336 556 l 293 556 q 258 553 281 556 q 208 539 236 551 q 152 500 181 526 q 99 425 124 474 l 65 425 l 65 522 q 133 560 103 547 q 188 580 164 574 q 231 587 213 586 q 261 588 249 588 q 453 539 383 588 q 522 393 522 490 l 522 328 l 522 294 l 522 229 l 522 35 l 522 1 l 485 1 q 419 28 446 1 q 392 94 392 56 m 229 22 q 295 45 265 22 q 347 101 325 68 q 380 169 368 133 q 392 229 392 204 l 392 294 q 296 306 343 307 q 212 290 249 306 q 153 244 175 275 q 131 164 131 213 q 136 112 131 138 q 153 67 142 86 q 183 35 164 47 q 229 22 201 22 z "},"á":{"ha":522,"x_min":0,"x_max":522,"o":"m 238 628 q 269 676 254 651 q 300 722 283 697 q 332 768 317 746 q 374 792 347 790 q 419 775 400 794 q 436 729 439 756 q 410 688 433 703 q 363 656 388 672 q 318 626 339 640 q 269 594 293 611 q 264 598 269 593 q 252 609 258 603 q 242 621 246 615 q 238 628 238 626 m 392 94 q 322 20 363 50 q 229 -10 282 -10 q 120 4 164 -10 q 49 42 76 18 q 11 101 22 67 q 0 175 0 135 q 38 277 0 240 q 135 329 76 314 q 262 344 193 344 q 392 333 331 343 l 392 393 l 392 460 q 364 528 392 500 q 296 556 336 556 l 293 556 q 258 553 281 556 q 208 539 236 551 q 152 500 181 526 q 99 425 124 474 l 65 425 l 65 522 q 133 560 103 547 q 188 580 164 574 q 231 587 213 586 q 261 588 249 588 q 453 539 383 588 q 522 393 522 490 l 522 328 l 522 294 l 522 229 l 522 35 l 522 1 l 485 1 q 419 28 446 1 q 392 94 392 56 m 229 22 q 295 45 265 22 q 347 101 325 68 q 380 169 368 133 q 392 229 392 204 l 392 294 q 296 306 343 307 q 212 290 249 306 q 153 244 175 275 q 131 164 131 213 q 136 112 131 138 q 153 67 142 86 q 183 35 164 47 q 229 22 201 22 z "},"â":{"ha":522,"x_min":0,"x_max":522,"o":"m 133 603 l 268 776 l 297 776 l 433 603 l 365 603 l 283 688 l 279 688 l 194 604 l 133 603 m 392 94 q 322 20 363 50 q 229 -10 282 -10 q 120 4 164 -10 q 49 42 76 18 q 11 101 22 67 q 0 175 0 135 q 38 277 0 240 q 135 329 76 314 q 262 344 193 344 q 392 333 331 343 l 392 393 l 392 460 q 364 528 392 500 q 296 556 336 556 l 293 556 q 258 553 281 556 q 208 539 236 551 q 152 500 181 526 q 99 425 124 474 l 65 425 l 65 522 q 133 560 103 547 q 188 580 164 574 q 231 587 213 586 q 261 588 249 588 q 453 539 383 588 q 522 393 522 490 l 522 328 l 522 294 l 522 229 l 522 35 l 522 1 l 485 1 q 419 28 446 1 q 392 94 392 56 m 229 22 q 295 45 265 22 q 347 101 325 68 q 380 169 368 133 q 392 229 392 204 l 392 294 q 296 306 343 307 q 212 290 249 306 q 153 244 175 275 q 131 164 131 213 q 136 112 131 138 q 153 67 142 86 q 183 35 164 47 q 229 22 201 22 z "},"ã":{"ha":522,"x_min":0,"x_max":522,"o":"m 486 779 q 458 651 486 696 q 393 606 429 606 q 352 617 371 606 q 314 646 333 629 l 278 679 q 246 701 260 694 q 215 707 232 707 q 188 685 203 707 q 172 607 172 664 l 122 607 q 151 735 122 690 q 215 781 179 781 q 253 774 236 781 q 290 751 271 768 l 331 717 q 358 692 343 706 q 390 679 374 679 q 422 702 408 679 q 436 779 436 725 l 486 779 m 392 94 q 419 28 392 56 q 485 1 446 1 l 522 1 l 522 35 l 522 229 l 522 294 l 522 328 l 522 393 q 453 539 522 490 q 261 588 383 588 q 231 587 249 588 q 188 580 213 586 q 133 560 164 574 q 65 522 103 547 l 65 425 l 99 425 q 152 500 124 474 q 208 539 181 526 q 258 553 236 551 q 293 556 281 556 l 296 556 q 364 528 336 556 q 392 460 392 500 l 392 393 l 392 333 q 262 344 331 343 q 135 329 193 344 q 38 277 76 314 q 0 175 0 240 q 11 101 0 135 q 49 42 22 67 q 120 4 76 18 q 229 -10 164 -10 q 322 20 282 -10 q 392 94 363 50 m 229 22 q 183 35 201 22 q 153 67 164 47 q 136 112 142 86 q 131 164 131 138 q 153 244 131 213 q 212 290 175 275 q 296 306 249 306 q 392 294 343 307 l 392 229 q 380 169 392 204 q 347 101 368 133 q 295 45 325 68 q 229 22 265 22 z "},"ä":{"ha":522,"x_min":0,"x_max":522,"o":"m 333 769 l 464 769 l 464 639 l 333 639 l 333 769 m 228 768 l 228 638 l 97 638 l 97 768 l 228 768 m 392 94 q 322 20 363 50 q 229 -10 282 -10 q 120 4 164 -10 q 49 42 76 18 q 11 101 22 67 q 0 175 0 135 q 38 277 0 240 q 135 329 76 314 q 262 344 193 344 q 392 333 331 343 l 392 393 l 392 460 q 364 528 392 500 q 296 556 336 556 l 293 556 q 258 553 281 556 q 208 539 236 551 q 152 500 181 526 q 99 425 124 474 l 65 425 l 65 522 q 133 560 103 547 q 188 580 164 574 q 231 587 213 586 q 261 588 249 588 q 453 539 383 588 q 522 393 522 490 l 522 328 l 522 294 l 522 229 l 522 35 l 522 1 l 485 1 q 419 28 446 1 q 392 94 392 56 m 229 22 q 295 45 265 22 q 347 101 325 68 q 380 169 368 133 q 392 229 392 204 l 392 294 q 296 306 343 307 q 212 290 249 306 q 153 244 175 275 q 131 164 131 213 q 136 112 131 138 q 153 67 142 86 q 183 35 164 47 q 229 22 201 22 z "},"å":{"ha":522,"x_min":0,"x_max":522,"o":"m 285 776 q 347 751 321 776 q 372 689 372 725 q 347 627 372 653 q 285 601 321 601 q 223 627 249 601 q 197 689 197 653 q 223 751 197 725 q 285 776 249 776 m 288 649 q 317 660 304 649 q 329 689 329 672 q 317 719 329 707 q 288 731 304 731 q 258 719 269 731 q 246 689 246 707 q 258 660 246 672 q 288 649 269 649 m 392 94 q 322 20 363 50 q 229 -10 282 -10 q 120 4 164 -10 q 49 42 76 18 q 11 101 22 67 q 0 175 0 135 q 38 277 0 240 q 135 329 76 314 q 262 344 193 344 q 392 333 331 343 l 392 393 l 392 460 q 364 528 392 500 q 296 556 336 556 l 293 556 q 258 553 281 556 q 208 539 236 551 q 152 500 181 526 q 99 425 124 474 l 65 425 l 65 522 q 133 560 103 547 q 188 580 164 574 q 231 587 213 586 q 261 588 249 588 q 453 539 383 588 q 522 393 522 490 l 522 328 l 522 294 l 522 229 l 522 35 l 522 1 l 485 1 q 419 28 446 1 q 392 94 392 56 m 229 22 q 295 45 265 22 q 347 101 325 68 q 380 169 368 133 q 392 229 392 204 l 392 294 q 296 306 343 307 q 212 290 249 306 q 153 244 175 275 q 131 164 131 213 q 136 112 131 138 q 153 67 142 86 q 183 35 164 47 q 229 22 201 22 z "},"æ":{"ha":889,"x_min":0,"x_max":886,"o":"m 229 22 q 315 61 278 22 q 372 149 351 100 q 392 229 392 199 l 392 294 q 267 304 326 311 q 169 264 208 299 q 131 164 131 229 q 153 67 131 110 q 229 22 176 22 m 658 556 q 578 511 607 556 q 536 393 546 465 l 653 393 q 729 442 706 393 q 717 532 751 489 q 658 556 693 556 m 522 1 l 485 1 q 419 29 447 1 q 392 94 392 57 q 322 19 363 50 q 229 -10 282 -10 q 93 14 144 -10 q 22 79 43 36 q 0 175 0 119 q 39 276 0 239 q 136 329 78 313 q 263 344 197 344 q 328 341 296 343 q 392 333 360 339 l 392 460 q 364 528 392 497 q 296 556 333 556 l 293 556 q 274 554 286 556 q 244 550 261 553 q 171 517 211 544 q 99 425 132 490 l 65 425 l 65 522 q 133 560 101 546 q 188 579 164 574 q 261 588 235 588 q 453 539 383 588 q 481 515 467 528 q 489 524 485 519 q 499 532 493 528 q 658 588 563 588 q 739 575 697 588 q 814 531 781 560 q 847 461 847 499 q 821 390 847 421 q 749 360 794 360 l 532 360 q 528 294 528 328 q 574 111 528 186 q 692 35 617 35 q 785 60 740 35 q 854 132 828 82 l 886 132 q 663 1 799 -6 q 522 40 582 4 l 522 1 z "},"ç":{"ha":493,"x_min":0,"x_max":488,"o":"m 224 3 q 69 88 128 15 q 0 294 0 174 q 69 503 0 417 q 260 588 138 588 l 279 588 q 294 586 290 588 l 299 586 q 300 585 300 586 q 392 557 346 581 q 401 551 397 554 q 410 544 406 547 l 411 544 q 451 500 440 525 q 453 444 467 468 q 422 419 443 426 q 381 426 404 414 q 342 483 360 440 q 340 488 340 486 q 339 490 340 489 q 331 508 335 500 q 322 522 326 515 q 299 544 315 532 q 275 550 289 550 q 238 540 257 547 q 129 294 129 463 q 175 111 129 186 q 293 35 218 35 q 386 60 342 35 q 456 132 429 82 l 488 132 q 388 31 440 60 q 265 1 335 3 l 244 -57 l 286 -53 q 376 -79 344 -53 q 410 -158 410 -107 q 371 -239 410 -208 q 261 -269 332 -269 q 133 -247 186 -269 l 133 -183 q 236 -218 189 -218 q 319 -158 321 -218 q 292 -117 319 -129 q 217 -104 263 -104 q 206 -104 211 -104 q 194 -106 201 -104 l 224 3 l 224 3 z "},"è":{"ha":525,"x_min":31,"x_max":525,"o":"m 311 628 q 306 621 311 626 q 295 609 301 615 q 284 598 289 603 q 278 594 279 593 q 229 626 254 611 q 184 656 208 640 q 138 688 160 672 q 111 729 114 703 q 128 775 108 756 q 174 792 147 794 q 217 768 201 790 q 247 722 232 746 q 278 676 263 697 q 311 628 293 651 m 331 35 q 424 59 379 35 q 493 132 469 83 l 525 132 q 477 71 501 96 q 426 31 453 46 q 368 8 399 15 q 301 1 338 1 q 215 15 256 1 q 140 55 174 29 q 83 116 107 81 q 49 196 58 151 q 40 343 31 272 q 82 468 49 414 q 170 555 115 522 q 297 588 225 588 q 377 574 336 588 q 453 531 418 561 q 484 479 478 508 q 480 424 490 450 q 445 378 469 397 q 388 360 421 360 l 171 360 q 167 294 167 328 q 178 193 167 240 q 212 110 190 146 q 263 55 233 75 q 331 35 293 35 m 297 556 q 216 510 246 556 q 175 393 186 464 l 292 393 q 338 408 318 393 q 369 443 358 422 q 376 488 379 464 q 356 532 374 513 q 297 556 332 556 z "},"é":{"ha":525,"x_min":31,"x_max":525,"o":"m 251 628 q 283 676 268 651 q 314 722 297 697 q 346 768 331 746 q 388 792 361 790 q 433 775 414 794 q 450 729 453 756 q 424 688 447 703 q 377 656 401 672 q 332 626 353 640 q 283 594 307 611 q 278 598 283 593 q 266 609 272 603 q 256 621 260 615 q 251 628 251 626 m 331 35 q 424 59 379 35 q 493 132 469 83 l 525 132 q 477 71 501 96 q 426 31 453 46 q 368 8 399 15 q 301 1 338 1 q 215 15 256 1 q 140 55 174 29 q 83 116 107 81 q 49 196 58 151 q 40 343 31 272 q 82 468 49 414 q 170 555 115 522 q 297 588 225 588 q 377 574 336 588 q 453 531 418 561 q 484 479 478 508 q 480 424 490 450 q 445 378 469 397 q 388 360 421 360 l 171 360 q 167 294 167 328 q 178 193 167 240 q 212 110 190 146 q 263 55 233 75 q 331 35 293 35 m 297 556 q 216 510 246 556 q 175 393 186 464 l 292 393 q 338 408 318 393 q 369 443 358 422 q 376 488 379 464 q 356 532 374 513 q 297 556 332 556 z "},"ê":{"ha":525,"x_min":31,"x_max":525,"o":"m 119 603 l 254 776 l 283 776 l 419 603 l 351 603 l 269 688 l 265 688 l 181 604 l 119 603 m 331 35 q 424 59 379 35 q 493 132 469 83 l 525 132 q 477 71 501 96 q 426 31 453 46 q 368 8 399 15 q 301 1 338 1 q 215 15 256 1 q 140 55 174 29 q 83 116 107 81 q 49 196 58 151 q 40 343 31 272 q 82 468 49 414 q 170 555 115 522 q 297 588 225 588 q 377 574 336 588 q 453 531 418 561 q 484 479 478 508 q 480 424 490 450 q 445 378 469 397 q 388 360 421 360 l 171 360 q 167 294 167 328 q 178 193 167 240 q 212 110 190 146 q 263 55 233 75 q 331 35 293 35 m 297 556 q 216 510 246 556 q 175 393 186 464 l 292 393 q 338 408 318 393 q 369 443 358 422 q 376 488 379 464 q 356 532 374 513 q 297 556 332 556 z "},"ë":{"ha":525,"x_min":31,"x_max":525,"o":"m 319 769 l 450 769 l 450 639 l 319 639 l 319 769 m 214 768 l 214 638 l 83 638 l 83 768 l 214 768 m 331 35 q 424 59 379 35 q 493 132 469 83 l 525 132 q 477 71 501 96 q 426 31 453 46 q 368 8 399 15 q 301 1 338 1 q 215 15 256 1 q 140 55 174 29 q 83 116 107 81 q 49 196 58 151 q 40 343 31 272 q 82 468 49 414 q 170 555 115 522 q 297 588 225 588 q 377 574 336 588 q 453 531 418 561 q 484 479 478 508 q 480 424 490 450 q 445 378 469 397 q 388 360 421 360 l 171 360 q 167 294 167 328 q 178 193 167 240 q 212 110 190 146 q 263 55 233 75 q 331 35 293 35 m 297 556 q 216 510 246 556 q 175 393 186 464 l 292 393 q 338 408 318 393 q 369 443 358 422 q 376 488 379 464 q 356 532 374 513 q 297 556 332 556 z "},"ì":{"ha":329,"x_min":-3,"x_max":240,"o":"m 200 628 q 195 621 200 626 q 184 609 190 615 q 173 598 178 603 q 167 594 168 593 q 118 626 143 611 q 73 656 97 640 q 26 688 49 672 q 0 729 3 703 q 17 775 -3 756 q 63 792 36 794 q 106 768 90 790 q 136 722 121 746 q 167 676 151 697 q 200 628 182 651 m 111 588 l 240 588 l 240 556 l 240 457 l 240 425 l 240 328 l 240 294 l 240 35 l 240 1 l 111 1 l 111 35 l 111 328 l 111 425 l 111 457 l 111 556 l 111 588 z "},"í":{"ha":329,"x_min":97,"x_max":314,"o":"m 113 628 q 144 676 129 651 q 175 722 158 697 q 207 768 192 746 q 249 792 222 790 q 294 775 275 794 q 311 729 314 756 q 285 688 308 703 q 238 656 263 672 q 193 626 214 640 q 144 594 168 611 q 139 598 144 593 q 127 609 133 603 q 117 621 121 615 q 113 628 113 626 m 97 588 l 226 588 l 226 556 l 226 457 l 226 425 l 226 328 l 226 294 l 226 35 l 226 1 l 97 1 l 97 35 l 97 328 l 97 425 l 97 457 l 97 556 l 97 588 z "},"î":{"ha":335,"x_min":0,"x_max":300,"o":"m 61 604 l 0 603 l 135 776 l 164 776 l 300 603 l 232 603 l 150 688 l 146 688 l 61 604 m 97 556 l 97 588 l 226 588 l 226 556 l 226 457 l 226 425 l 226 328 l 226 294 l 226 35 l 226 1 l 97 1 l 97 35 l 97 328 l 97 425 l 97 457 l 97 556 z "},"ï":{"ha":371,"x_min":0,"x_max":367,"o":"m 236 639 l 236 769 l 367 769 l 367 639 l 236 639 m 0 768 l 131 768 l 131 638 l 0 638 l 0 768 m 125 556 l 125 588 l 254 588 l 254 556 l 254 457 l 254 425 l 254 328 l 254 294 l 254 35 l 254 1 l 125 1 l 125 35 l 125 328 l 125 425 l 125 457 l 125 556 z "},"ð":{"ha":536,"x_min":0,"x_max":536,"o":"m 394 396 q 357 492 394 456 q 264 526 318 526 q 171 482 208 526 q 132 361 132 438 l 132 197 q 171 88 132 136 q 264 36 208 36 q 357 79 318 36 q 394 181 394 121 l 394 396 m 489 726 q 490 724 489 725 q 490 722 490 724 q 526 432 526 606 l 526 289 q 450 85 526 169 q 264 0 374 0 q 78 76 154 0 q 0 289 0 154 q 79 501 1 424 q 264 576 154 576 q 326 565 297 576 q 367 540 353 554 q 380 527 374 533 q 389 515 386 521 l 392 508 q 393 506 393 507 q 394 504 394 506 l 394 540 q 375 726 394 644 l 186 726 l 186 813 l 344 813 q 232 943 301 901 q 67 986 158 986 l 67 1019 q 246 993 163 1019 q 392 901 329 965 q 454 813 428 863 l 536 813 l 536 726 l 489 726 z "},"ñ":{"ha":521,"x_min":0,"x_max":521,"o":"m 458 779 q 430 651 458 696 q 365 606 401 606 q 324 617 343 606 q 286 646 306 629 l 250 679 q 218 701 232 694 q 188 707 204 707 q 160 685 175 707 q 144 607 144 664 l 94 607 q 123 735 94 690 q 188 781 151 781 q 226 774 208 781 q 263 751 243 768 l 303 717 q 331 692 315 706 q 363 679 346 679 q 394 702 381 679 q 408 779 408 725 l 458 779 m 392 -3 l 521 -3 l 521 31 l 521 258 l 521 383 q 505 462 521 425 q 462 526 489 499 q 399 569 435 553 q 321 585 363 585 l 304 585 q 211 570 256 585 q 131 529 167 556 l 131 551 l 131 585 l 0 585 l 0 551 l 0 454 l 0 421 l 0 324 l 0 281 l 0 128 l 0 31 l 0 -3 l 131 -3 l 131 31 l 131 128 l 131 290 l 131 324 l 131 356 l 131 414 q 170 512 131 472 q 268 551 210 551 q 356 515 319 551 q 392 428 392 479 l 392 31 l 392 -3 z "},"ò":{"ha":592,"x_min":0,"x_max":586,"o":"m 339 628 q 334 621 339 626 q 323 609 329 615 q 312 598 317 603 q 306 594 307 593 q 257 626 282 611 q 212 656 236 640 q 165 688 188 672 q 139 729 142 703 q 156 775 136 756 q 202 792 175 794 q 244 768 229 790 q 275 722 260 746 q 306 676 290 697 q 339 628 321 651 m 293 585 q 406 562 353 585 q 500 499 460 539 q 563 405 540 458 q 586 290 586 351 q 563 176 586 229 q 500 83 540 124 q 406 20 460 43 q 293 -3 353 -3 q 178 20 232 -3 q 85 83 125 43 q 23 176 46 124 q 0 290 0 229 q 23 405 0 351 q 85 499 46 458 q 178 562 125 539 q 293 585 232 585 m 293 31 q 356 51 326 31 q 408 106 386 71 q 443 189 431 142 q 456 290 456 236 q 443 392 456 344 q 408 474 431 439 q 356 531 386 510 q 293 551 326 551 q 230 531 260 551 q 178 474 200 510 q 143 392 156 439 q 131 290 131 344 q 143 189 131 236 q 178 106 156 142 q 230 51 200 71 q 293 31 260 31 z "},"ó":{"ha":592,"x_min":0,"x_max":586,"o":"m 251 628 q 283 676 268 651 q 314 722 297 697 q 346 768 331 746 q 388 792 361 790 q 433 775 414 794 q 450 729 453 756 q 424 688 447 703 q 377 656 401 672 q 332 626 353 640 q 283 594 307 611 q 278 598 283 593 q 266 609 272 603 q 256 621 260 615 q 251 628 251 626 m 293 585 q 406 562 353 585 q 500 499 460 539 q 563 405 540 458 q 586 290 586 351 q 563 176 586 229 q 500 83 540 124 q 406 20 460 43 q 293 -3 353 -3 q 178 20 232 -3 q 85 83 125 43 q 23 176 46 124 q 0 290 0 229 q 23 405 0 351 q 85 499 46 458 q 178 562 125 539 q 293 585 232 585 m 293 31 q 356 51 326 31 q 408 106 386 71 q 443 189 431 142 q 456 290 456 236 q 443 392 456 344 q 408 474 431 439 q 356 531 386 510 q 293 551 326 551 q 230 531 260 551 q 178 474 200 510 q 143 392 156 439 q 131 290 131 344 q 143 189 131 236 q 178 106 156 142 q 230 51 200 71 q 293 31 260 31 z "},"ô":{"ha":592,"x_min":0,"x_max":586,"o":"m 133 603 l 268 776 l 297 776 l 433 603 l 365 603 l 283 688 l 279 688 l 194 604 l 133 603 m 293 585 q 406 562 353 585 q 500 499 460 539 q 563 405 540 458 q 586 290 586 351 q 563 176 586 229 q 500 83 540 124 q 406 20 460 43 q 293 -3 353 -3 q 178 20 232 -3 q 85 83 125 43 q 23 176 46 124 q 0 290 0 229 q 23 405 0 351 q 85 499 46 458 q 178 562 125 539 q 293 585 232 585 m 293 31 q 356 51 326 31 q 408 106 386 71 q 443 189 431 142 q 456 290 456 236 q 443 392 456 344 q 408 474 431 439 q 356 531 386 510 q 293 551 326 551 q 230 531 260 551 q 178 474 200 510 q 143 392 156 439 q 131 290 131 344 q 143 189 131 236 q 178 106 156 142 q 230 51 200 71 q 293 31 260 31 z "},"õ":{"ha":592,"x_min":0,"x_max":586,"o":"m 486 779 q 458 651 486 696 q 393 606 429 606 q 352 617 371 606 q 314 646 333 629 l 278 679 q 246 701 260 694 q 215 707 232 707 q 188 685 203 707 q 172 607 172 664 l 122 607 q 151 735 122 690 q 215 781 179 781 q 253 774 236 781 q 290 751 271 768 l 331 717 q 358 692 343 706 q 390 679 374 679 q 422 702 408 679 q 436 779 436 725 l 486 779 m 293 585 q 178 562 232 585 q 85 499 125 539 q 23 405 46 458 q 0 290 0 351 q 23 176 0 229 q 85 83 46 124 q 178 20 125 43 q 293 -3 232 -3 q 406 20 353 -3 q 500 83 460 43 q 563 176 540 124 q 586 290 586 229 q 563 405 586 351 q 500 499 540 458 q 406 562 460 539 q 293 585 353 585 m 293 31 q 230 51 260 31 q 178 106 200 71 q 143 189 156 142 q 131 290 131 236 q 143 392 131 344 q 178 474 156 439 q 230 531 200 510 q 293 551 260 551 q 356 531 326 551 q 408 474 386 510 q 443 392 431 439 q 456 290 456 344 q 443 189 456 236 q 408 106 431 142 q 356 51 386 71 q 293 31 326 31 z "},"ö":{"ha":592,"x_min":0,"x_max":586,"o":"m 347 769 l 478 769 l 478 639 l 347 639 l 347 769 m 242 768 l 242 638 l 111 638 l 111 768 l 242 768 m 293 585 q 406 562 353 585 q 500 499 460 539 q 563 405 540 458 q 586 290 586 351 q 563 176 586 229 q 500 83 540 124 q 406 20 460 43 q 293 -3 353 -3 q 178 20 232 -3 q 85 83 125 43 q 23 176 46 124 q 0 290 0 229 q 23 405 0 351 q 85 499 46 458 q 178 562 125 539 q 293 585 232 585 m 293 31 q 356 51 326 31 q 408 106 386 71 q 443 189 431 142 q 456 290 456 236 q 443 392 456 344 q 408 474 431 439 q 356 531 386 510 q 293 551 326 551 q 230 531 260 551 q 178 474 200 510 q 143 392 156 439 q 131 290 131 344 q 143 189 131 236 q 178 106 156 142 q 230 51 200 71 q 293 31 260 31 z "},"÷":{"ha":688,"x_min":58,"x_max":629,"o":"m 58 564 l 58 658 l 628 658 l 629 658 l 629 564 l 58 564 m 282 335 l 282 465 l 413 465 l 413 335 l 282 335 m 282 922 l 413 922 l 413 792 l 282 792 l 282 922 z "},"ø":{"ha":592,"x_min":0,"x_max":592,"o":"m 367 533 q 296 558 333 558 q 179 482 226 558 q 131 296 131 404 q 178 113 131 186 l 367 533 m 226 57 q 296 33 258 33 q 413 110 365 33 q 460 296 460 186 q 415 475 460 399 l 226 57 m 144 40 q 88 88 113 61 q 0 296 0 172 q 88 506 0 418 q 296 592 174 592 q 386 578 346 592 l 456 732 l 529 732 q 528 724 529 726 l 449 550 q 478 529 464 540 q 506 506 492 518 q 592 296 592 417 q 506 88 592 174 q 296 0 418 0 q 207 13 249 0 l 143 -129 l 71 -129 q 74 -118 68 -126 l 144 40 z "},"ù":{"ha":521,"x_min":0,"x_max":521,"o":"m 297 628 q 292 621 297 626 q 281 609 288 615 q 270 598 275 603 q 264 594 265 593 q 215 626 240 611 q 170 656 194 640 q 124 688 146 672 q 97 729 100 703 q 114 775 94 756 q 160 792 133 794 q 203 768 188 790 q 233 722 218 746 q 264 676 249 697 q 297 628 279 651 m 390 31 l 390 53 q 310 12 354 26 q 217 -3 265 -3 l 200 -3 q 122 13 158 -3 q 58 56 85 29 q 15 120 31 83 q 0 199 0 157 l 0 356 l 0 551 l 0 585 l 129 585 l 129 551 l 129 154 q 165 67 129 103 q 253 31 201 31 q 351 70 311 31 q 390 167 390 110 l 390 258 l 390 290 l 390 454 l 390 551 l 390 585 l 521 585 l 521 551 l 521 454 l 521 389 l 521 356 l 521 301 l 521 258 l 521 161 l 521 128 l 521 31 l 521 -3 l 390 -3 l 390 31 z "},"ú":{"ha":521,"x_min":0,"x_max":521,"o":"m 224 628 q 256 676 240 651 q 286 722 269 697 q 318 768 303 746 q 360 792 333 790 q 406 775 386 794 q 422 729 425 756 q 396 688 419 703 q 349 656 374 672 q 304 626 325 640 q 256 594 279 611 q 250 598 256 593 q 238 609 244 603 q 228 621 232 615 q 224 628 224 626 m 390 31 l 390 53 q 310 12 354 26 q 217 -3 265 -3 l 200 -3 q 122 13 158 -3 q 58 56 85 29 q 15 120 31 83 q 0 199 0 157 l 0 356 l 0 551 l 0 585 l 129 585 l 129 551 l 129 154 q 165 67 129 103 q 253 31 201 31 q 351 70 311 31 q 390 167 390 110 l 390 258 l 390 290 l 390 454 l 390 551 l 390 585 l 521 585 l 521 551 l 521 454 l 521 389 l 521 356 l 521 301 l 521 258 l 521 161 l 521 128 l 521 31 l 521 -3 l 390 -3 l 390 31 z "},"û":{"ha":521,"x_min":0,"x_max":521,"o":"m 106 603 l 240 776 l 269 776 l 406 603 l 338 603 l 256 688 l 251 688 l 167 604 l 106 603 m 390 31 l 390 53 q 310 12 354 26 q 217 -3 265 -3 l 200 -3 q 122 13 158 -3 q 58 56 85 29 q 15 120 31 83 q 0 199 0 157 l 0 356 l 0 551 l 0 585 l 129 585 l 129 551 l 129 154 q 165 67 129 103 q 253 31 201 31 q 351 70 311 31 q 390 167 390 110 l 390 258 l 390 290 l 390 454 l 390 551 l 390 585 l 521 585 l 521 551 l 521 454 l 521 389 l 521 356 l 521 301 l 521 258 l 521 161 l 521 128 l 521 31 l 521 -3 l 390 -3 l 390 31 z "},"ü":{"ha":521,"x_min":0,"x_max":521,"o":"m 306 769 l 436 769 l 436 639 l 306 639 l 306 769 m 200 768 l 200 638 l 69 638 l 69 768 l 200 768 m 390 31 l 390 53 q 310 12 354 26 q 217 -3 265 -3 l 200 -3 q 122 13 158 -3 q 58 56 85 29 q 15 120 31 83 q 0 199 0 157 l 0 356 l 0 551 l 0 585 l 129 585 l 129 551 l 129 154 q 165 67 129 103 q 253 31 201 31 q 351 70 311 31 q 390 167 390 110 l 390 258 l 390 290 l 390 454 l 390 551 l 390 585 l 521 585 l 521 551 l 521 454 l 521 389 l 521 356 l 521 301 l 521 258 l 521 161 l 521 128 l 521 31 l 521 -3 l 390 -3 l 390 31 z "},"ý":{"ha":553,"x_min":0,"x_max":553,"o":"m 265 628 q 297 676 282 651 q 328 722 311 697 q 360 768 344 746 q 401 792 375 790 q 447 775 428 794 q 464 729 467 756 q 438 688 461 703 q 391 656 415 672 q 346 626 367 640 q 297 594 321 611 q 292 598 297 593 q 280 609 286 603 q 269 621 274 615 q 265 628 265 626 m 553 585 l 175 -296 l 133 -296 l 260 -6 l 15 551 l 0 585 l 143 585 l 157 551 l 331 157 l 518 585 l 553 585 z "},"þ":{"ha":493,"x_min":0,"x_max":493,"o":"m 103 31 q 63 58 82 40 l 63 -253 q 61 -260 63 -258 q 57 -264 58 -264 l 7 -264 q 1 -261 4 -264 q 0 -253 0 -260 l 0 883 q 1 892 0 890 q 7 894 4 894 l 54 894 q 63 881 63 894 l 63 560 l 65 560 l 65 528 q 231 592 115 592 q 424 506 353 592 q 493 296 493 419 q 424 88 493 174 q 231 0 353 0 q 103 31 154 0 m 63 394 l 63 90 q 82 73 72 81 q 104 58 92 65 q 197 33 147 33 q 317 111 271 33 q 361 296 361 189 q 314 483 361 407 q 197 560 267 560 q 107 515 147 560 q 65 394 65 469 l 63 394 z "},"ÿ":{"ha":553,"x_min":0,"x_max":553,"o":"m 347 639 l 347 769 l 478 769 l 478 639 l 347 639 m 111 768 l 242 768 l 242 638 l 111 638 l 111 768 m 518 585 l 553 585 l 175 -296 l 133 -296 l 260 -6 l 15 551 l 0 585 l 143 585 l 157 551 l 331 157 l 518 585 z "},"ı":{"ha":240,"x_min":0,"x_max":240,"o":"m 239 207 l 239 3 l 138 3 l 138 28 l 138 701 l 18 583 l 0 601 l 196 797 l 214 797 l 232 797 l 240 797 l 240 207 l 239 207 l 239 207 z "},"̀":{"ha":0,"x_min":-329,"x_max":-17,"o":"m -64 732 l -287 869 q -329 926 -329 896 q -316 960 -329 946 q -279 974 -303 974 q -251 965 -265 974 q -214 933 -237 957 l -17 732 l -64 732 z "},"́":{"ha":0,"x_min":-329,"x_max":-17,"o":"m -329 732 l -132 933 q -95 965 -108 957 q -67 974 -82 974 q -30 960 -43 974 q -17 926 -17 946 q -58 869 -17 896 l -283 732 l -329 732 z "},"̂":{"ha":0,"x_min":-424,"x_max":-29,"o":"m -68 733 l -226 879 l -383 733 l -424 733 l -265 974 l -186 974 l -29 733 l -68 733 z "},"̃":{"ha":0,"x_min":-415,"x_max":-26,"o":"m -161 789 q -239 810 -196 789 q -321 831 -283 831 q -378 789 -361 831 l -415 789 q -369 879 -403 839 q -289 918 -335 918 q -206 899 -253 918 q -122 879 -160 879 q -62 918 -81 879 l -26 918 q -72 828 -39 867 q -161 789 -106 789 z "},"̄":{"ha":364,"x_min":7,"x_max":357,"o":"m 7 810 l 7 896 l 357 896 l 357 810 l 7 810 z "},"̇":{"ha":0,"x_min":-262,"x_max":-117,"o":"m -189 775 q -207 782 -201 775 l -258 840 q -262 857 -262 846 q -254 874 -262 867 l -207 924 q -189 931 -197 931 q -172 924 -179 931 l -124 871 q -117 856 -117 867 q -125 838 -119 842 l -174 785 q -183 776 -181 778 q -189 775 -186 775 z "},"̈":{"ha":0,"x_min":-408,"x_max":-15,"o":"m -335 775 q -351 782 -342 775 l -403 840 q -408 857 -408 847 q -400 874 -408 865 l -351 924 q -335 931 -342 931 q -317 922 -328 931 l -269 872 q -262 856 -262 861 q -271 838 -262 846 l -318 786 q -335 775 -328 775 m -86 775 q -104 782 -94 775 l -156 842 q -161 857 -161 849 q -151 874 -161 865 l -104 924 q -86 931 -93 931 q -68 922 -81 931 l -22 872 q -15 856 -15 864 q -24 838 -15 846 l -69 786 q -86 775 -81 775 z "},"̊":{"ha":404,"x_min":69,"x_max":335,"o":"m 203 1060 q 253 1049 229 1060 q 296 1021 278 1039 q 324 978 314 1003 q 335 928 335 954 q 324 876 335 900 q 296 833 314 851 q 253 805 278 815 q 203 794 229 794 q 108 833 147 794 q 69 928 69 872 q 80 978 69 954 q 108 1021 90 1003 q 151 1049 126 1039 q 203 1060 175 1060 m 203 851 q 257 874 235 851 q 279 928 279 896 q 257 982 279 960 q 203 1004 235 1004 q 149 982 171 1004 q 126 928 126 960 q 149 874 126 896 q 203 851 171 851 z "},"̌":{"ha":0,"x_min":-424,"x_max":-29,"o":"m -265 732 l -424 974 l -383 974 l -226 829 l -68 974 l -29 974 l -186 732 l -265 732 z "},"̧":{"ha":0,"x_min":-319,"x_max":-43,"o":"m -192 -283 q -319 -261 -267 -283 l -319 -197 q -217 -232 -262 -232 q -133 -172 -133 -232 q -162 -131 -133 -143 q -235 -118 -190 -118 q -247 -118 -242 -118 q -258 -119 -251 -118 l -226 0 l -183 0 l -208 -71 q -187 -68 -197 -68 q -167 -67 -176 -68 q -76 -93 -108 -67 q -43 -172 -43 -119 q -82 -253 -43 -224 q -192 -283 -121 -283 z "},"–":{"ha":751,"x_min":38,"x_max":714,"o":"m 38 285 l 38 365 l 714 365 l 714 285 l 38 285 z "},"—":{"ha":1389,"x_min":0,"x_max":1389,"o":"m 0 285 l 0 365 l 1389 365 l 1389 285 l 0 285 z "},"‘":{"ha":313,"x_min":72,"x_max":243,"o":"m 72 731 l 72 861 q 97 947 72 910 q 151 1008 121 983 q 207 1044 181 1032 q 236 1057 233 1057 q 242 1046 243 1057 q 233 1028 240 1035 q 208 1003 222 1018 q 181 968 194 988 q 159 926 168 949 q 150 879 150 904 q 154 861 150 869 l 203 861 l 203 731 l 72 731 z "},"’":{"ha":311,"x_min":72,"x_max":242,"o":"m 242 1057 l 242 926 q 217 841 242 878 q 163 780 193 804 q 108 743 133 756 q 79 731 82 731 q 74 742 72 731 q 82 760 75 753 q 106 785 92 769 q 133 820 121 800 q 155 863 146 840 q 164 910 164 885 q 160 926 164 918 l 111 926 l 111 1057 l 242 1057 z "},"‚":{"ha":313,"x_min":72,"x_max":242,"o":"m 242 126 l 242 -4 q 217 -90 242 -53 q 163 -151 193 -126 q 108 -187 133 -175 q 79 -200 82 -200 q 74 -189 72 -200 q 82 -171 75 -178 q 106 -146 92 -161 q 133 -110 121 -131 q 155 -68 146 -90 q 164 -21 164 -46 q 160 -4 164 -12 l 111 -4 l 111 126 l 242 126 z "},"“":{"ha":510,"x_min":74,"x_max":439,"o":"m 399 713 l 269 713 l 269 843 q 294 928 269 892 q 348 990 318 965 q 403 1026 378 1014 q 432 1039 429 1039 q 438 1028 439 1039 q 429 1010 436 1017 q 404 985 418 1000 q 377 950 390 969 q 355 908 364 931 q 346 860 346 885 q 350 843 346 851 l 399 843 l 399 713 m 74 713 l 74 843 q 98 928 74 892 q 152 990 122 965 q 208 1026 182 1014 q 236 1039 233 1039 q 242 1028 243 1039 q 233 1010 240 1017 q 208 985 222 1000 q 181 950 194 969 q 159 908 168 931 q 150 860 150 885 q 151 851 150 856 q 154 843 153 847 l 204 843 l 204 713 l 74 713 z "},"”":{"ha":507,"x_min":72,"x_max":438,"o":"m 113 1039 l 242 1039 l 242 908 q 217 823 242 860 q 163 762 193 786 q 108 725 133 738 q 79 713 82 713 q 74 724 72 713 q 82 742 75 735 q 106 767 92 751 q 134 801 121 782 q 156 844 147 821 q 165 892 165 867 q 161 908 165 900 l 113 908 l 113 1039 m 438 1039 l 438 908 q 413 823 438 860 q 359 762 389 786 q 303 725 329 738 q 275 713 278 713 q 269 724 268 713 q 278 742 271 735 q 302 767 288 751 q 330 801 317 782 q 352 844 343 821 q 361 892 361 867 q 360 900 361 896 q 357 908 358 904 l 307 908 l 307 1039 l 438 1039 z "},"„":{"ha":510,"x_min":72,"x_max":438,"o":"m 113 136 l 242 136 l 242 6 q 217 -80 242 -43 q 163 -141 193 -117 q 108 -178 133 -165 q 79 -190 82 -190 q 74 -179 72 -190 q 82 -161 75 -168 q 106 -136 92 -151 q 134 -101 121 -121 q 156 -59 147 -82 q 165 -11 165 -36 q 161 6 165 -3 l 113 6 l 113 136 m 438 136 l 438 6 q 413 -80 438 -43 q 359 -141 389 -117 q 303 -178 329 -165 q 275 -190 278 -190 q 269 -179 268 -190 q 278 -161 271 -168 q 302 -136 288 -151 q 330 -101 317 -121 q 352 -59 343 -82 q 361 -11 361 -36 q 360 -3 361 -7 q 357 6 358 1 l 307 6 l 307 136 l 438 136 z "},"†":{"ha":688,"x_min":49,"x_max":640,"o":"m 332 -183 q 254 478 328 163 q 329 665 322 546 q 208 628 264 658 q 121 589 139 589 q 68 614 88 589 q 49 679 49 639 q 66 742 49 715 q 115 768 83 768 q 208 731 138 768 q 329 693 267 699 q 293 814 325 758 q 254 901 254 882 q 279 955 254 935 q 344 975 304 975 q 407 957 381 975 q 433 907 433 939 q 396 814 433 886 q 358 693 364 757 q 479 729 425 700 q 567 768 547 768 q 619 744 599 768 q 640 679 640 719 q 622 615 640 642 q 572 589 604 589 q 481 626 551 589 q 358 665 424 657 q 433 478 364 546 q 378 156 397 321 q 357 -183 360 -8 l 332 -183 z "},"‡":{"ha":688,"x_min":47,"x_max":639,"o":"m 343 -183 q 278 -163 303 -183 q 254 -110 254 -143 q 292 -22 254 -92 q 329 99 322 32 q 207 61 265 93 q 115 24 136 24 q 65 50 83 24 q 47 113 47 76 q 67 178 47 153 q 121 203 88 203 q 208 164 138 203 q 329 126 264 132 q 254 396 322 279 q 329 665 324 513 q 208 628 264 658 q 121 589 138 589 q 67 614 88 589 q 47 679 47 639 q 65 742 47 715 q 115 768 83 768 q 207 731 136 768 q 329 693 265 699 q 292 814 322 760 q 254 901 254 882 q 278 955 254 935 q 343 975 303 975 q 407 957 381 975 q 433 907 433 939 q 396 814 433 886 q 358 693 364 757 q 478 729 426 700 q 565 768 546 768 q 619 744 599 768 q 639 679 639 719 q 622 615 639 642 q 572 589 604 589 q 479 626 550 589 q 421 651 451 642 q 358 665 390 661 q 433 396 363 513 q 358 126 363 279 q 479 165 421 132 q 572 203 550 203 q 622 176 604 203 q 639 113 639 150 q 619 47 639 71 q 565 24 599 24 q 478 61 546 24 q 358 99 424 92 q 396 -24 364 35 q 433 -115 433 -94 q 407 -165 433 -147 q 343 -183 381 -183 z "},"•":{"ha":694,"x_min":146,"x_max":549,"o":"m 347 286 q 204 344 263 286 q 146 488 146 403 q 206 629 146 569 q 347 688 264 688 q 489 628 431 688 q 549 488 549 568 q 489 344 549 407 q 347 286 428 286 z "},"…":{"ha":2844,"x_min":69,"x_max":2097,"o":"m 69 0 l 69 131 l 200 131 l 200 0 l 69 0 m 1018 0 l 1018 131 l 1149 131 l 1149 0 l 1018 0 m 1967 0 l 1967 131 l 2097 131 l 2097 0 l 1967 0 z "},"‹":{"ha":428,"x_min":118,"x_max":360,"o":"m 350 119 l 118 325 l 350 531 l 360 531 l 360 506 l 221 325 l 360 144 l 360 119 l 350 119 z "},"›":{"ha":428,"x_min":68,"x_max":310,"o":"m 68 119 l 68 144 l 207 325 l 68 506 l 68 531 l 78 531 l 310 325 l 78 119 l 68 119 z "},"⁄":{"ha":232,"x_min":-232,"x_max":463,"o":"m -232 -19 l 406 971 l 463 971 l -174 -19 l -232 -19 z "},"₣":{"ha":675,"x_min":0,"x_max":675,"o":"m 121 1011 l 675 1011 l 675 979 l 251 979 l 251 556 l 675 556 l 675 522 l 251 522 l 251 346 l 350 346 l 350 296 l 251 296 l 251 1 l 121 1 l 121 296 l 0 296 l 0 346 l 121 346 l 121 1011 z "},"₤":{"ha":688,"x_min":51,"x_max":635,"o":"m 78 0 l 78 33 q 204 318 204 194 q 182 414 204 371 l 181 415 l 64 415 l 64 457 l 161 457 l 143 497 l 51 497 l 51 538 l 128 538 q 104 668 104 613 q 188 904 104 821 q 399 986 272 986 q 455 984 424 986 q 524 976 486 982 q 599 954 599 968 l 599 844 l 574 844 q 526 910 569 885 q 397 935 482 935 q 271 868 329 935 q 211 703 211 801 q 218 615 213 657 q 235 538 224 574 l 492 538 l 492 497 l 249 497 q 257 476 253 486 q 265 457 261 467 l 504 457 l 504 415 l 288 415 q 311 322 311 372 q 201 68 311 214 l 474 68 q 601 157 563 68 l 635 157 l 565 0 l 78 0 z "},"₧":{"ha":1289,"x_min":0,"x_max":1289,"o":"m 310 1007 q 430 983 374 1007 q 528 917 486 958 q 595 819 571 875 q 619 699 619 763 q 595 578 619 635 q 528 480 571 522 q 430 413 486 438 q 310 389 374 389 l 131 389 l 131 356 l 131 31 l 131 -3 l 0 -3 l 0 31 l 0 975 l 0 1007 l 33 1007 l 131 1007 l 310 1007 m 489 742 q 471 833 489 790 q 421 907 453 875 q 347 957 389 939 q 257 975 304 975 l 131 975 l 131 519 l 131 486 l 131 421 l 257 421 q 347 439 304 421 q 421 489 389 457 q 471 563 453 521 q 489 654 489 606 l 489 742 m 1199 975 l 992 975 l 939 975 l 874 975 l 874 910 l 874 585 l 874 519 l 874 486 l 874 454 l 874 356 l 874 31 l 874 -3 l 743 -3 l 743 31 l 743 617 l 743 975 l 710 975 l 644 975 l 624 975 l 417 975 l 417 1007 l 644 1007 l 743 1007 l 808 1007 l 840 1007 l 874 1007 l 1199 1007 l 1199 975 m 1192 324 q 1237 292 1218 306 q 1267 261 1256 278 q 1284 221 1279 244 q 1289 161 1289 197 q 1275 107 1289 136 q 1237 53 1261 78 q 1180 13 1213 29 q 1111 -3 1147 -3 q 1027 1 1075 -3 q 931 31 979 6 l 931 161 l 963 161 q 974 113 963 136 q 1003 72 985 90 q 1045 42 1022 53 q 1093 31 1068 31 q 1139 38 1115 31 q 1181 59 1163 46 q 1212 90 1200 72 q 1224 128 1224 108 q 1209 169 1224 153 q 1171 200 1194 186 q 1118 228 1147 214 q 1061 258 1089 242 q 983 339 1004 292 q 963 454 963 386 q 974 506 963 482 q 1007 548 986 531 q 1055 575 1028 565 q 1114 585 1082 585 q 1150 583 1131 585 q 1189 578 1169 582 q 1226 568 1208 575 q 1256 551 1243 561 l 1256 454 l 1224 454 q 1126 551 1224 551 q 1099 549 1114 551 q 1069 537 1083 546 q 1047 512 1056 528 q 1038 471 1038 496 q 1048 419 1038 438 q 1078 388 1058 401 q 1126 362 1097 375 q 1192 324 1154 349 z "},"€":{"ha":932,"x_min":0,"x_max":932,"o":"m 163 631 q 182 697 169 665 q 210 761 194 729 q 369 943 269 874 q 590 1011 467 1011 q 756 974 669 1011 q 900 881 842 932 l 900 686 l 867 686 l 867 725 q 819 876 867 808 q 693 969 772 944 q 622 979 660 979 q 381 842 481 979 q 292 631 314 749 l 571 631 l 571 572 l 283 572 q 281 540 282 557 q 281 507 281 524 q 281 478 281 492 q 283 450 282 464 l 571 450 l 571 392 l 290 392 q 381 174 311 268 q 622 35 481 35 q 776 78 700 35 q 845 129 814 100 q 900 197 876 158 l 932 197 q 786 54 869 106 q 590 1 700 1 q 369 69 467 1 q 210 253 271 138 q 161 392 175 319 l 0 392 l 0 450 l 153 450 q 151 478 151 464 q 150 507 150 492 q 151 540 150 524 q 153 572 151 557 l 0 572 l 0 631 l 163 631 l 163 631 z "},"№":{"ha":1263,"x_min":0,"x_max":1263,"o":"m 992 818 q 1097 797 1047 818 q 1183 739 1147 775 q 1241 653 1219 703 q 1263 547 1263 603 q 1241 442 1263 492 q 1183 357 1219 393 q 1097 299 1147 321 q 992 278 1047 278 q 887 299 936 278 q 801 357 838 321 q 744 442 765 393 q 722 547 722 492 q 744 653 722 603 q 801 739 765 703 q 887 797 838 775 q 992 818 936 818 m 992 307 q 1050 326 1022 307 q 1098 377 1078 344 q 1130 453 1118 410 q 1142 547 1142 497 q 1130 641 1142 597 q 1098 717 1118 685 q 1050 769 1078 750 q 992 788 1022 788 q 934 769 961 788 q 886 717 907 750 q 853 641 865 685 q 842 547 842 597 q 853 453 842 497 q 886 377 865 410 q 934 326 907 344 q 992 307 961 307 m 825 139 l 825 201 l 1175 201 l 1175 139 l 825 139 m 651 975 l 651 714 l 651 192 l 651 -3 l 651 -35 l 639 -35 l 618 -3 l 618 -1 l 32 931 l 32 389 l 32 31 l 32 -3 l 0 -3 l 0 31 l 0 975 l 0 1007 l 32 1007 l 138 1007 l 618 243 l 618 813 l 618 975 l 618 1007 l 651 1007 l 651 975 z "},"™":{"ha":867,"x_min":56,"x_max":800,"o":"m 410 1010 l 410 994 l 315 994 l 292 994 l 263 994 l 263 965 l 263 818 l 263 789 l 263 774 l 263 760 l 263 715 l 263 568 l 263 553 l 203 553 l 203 568 l 203 833 l 203 994 l 189 994 l 158 994 l 150 994 l 56 994 l 56 1010 l 158 1010 l 203 1010 l 232 1010 l 247 1010 l 263 1010 l 410 1010 m 763 1011 l 800 1011 l 800 997 l 800 850 l 800 806 l 800 790 l 800 776 l 800 746 l 800 569 l 800 556 l 742 556 l 742 569 l 742 703 l 742 965 l 628 717 l 621 703 l 594 644 l 514 821 l 447 969 l 447 703 l 447 569 l 447 556 l 432 556 l 432 569 l 432 997 l 432 1011 l 447 1011 l 476 1011 l 492 1011 l 619 735 l 746 1011 l 763 1011 z "},"∂":{"ha":689,"x_min":53,"x_max":636,"o":"m 369 7 q 417 18 393 7 q 465 56 442 29 q 514 151 497 92 q 531 278 531 211 q 521 377 531 328 q 494 470 511 426 q 454 549 478 514 q 404 606 431 583 q 356 632 376 625 q 310 639 335 639 q 225 594 265 636 q 168 471 185 553 q 157 364 157 411 q 161 311 157 336 q 175 232 165 271 q 201 158 185 193 q 238 93 217 122 q 283 43 258 64 q 369 7 326 7 m 344 -17 q 272 -6 308 -17 q 201 26 235 4 q 140 79 168 47 q 90 153 111 111 q 53 324 53 233 q 62 410 53 367 q 90 492 71 453 q 136 563 108 531 q 201 619 164 596 q 344 664 271 664 q 437 646 389 664 q 524 592 485 628 q 456 735 496 671 q 367 846 415 799 q 262 921 318 893 q 144 953 206 949 l 144 989 q 493 796 351 989 q 636 324 636 603 q 599 156 636 238 q 489 28 563 75 q 344 -17 419 -17 z "},"∆":{"ha":733,"x_min":4,"x_max":728,"o":"m 349 810 l 74 83 l 617 83 l 349 810 m 4 0 l 371 972 l 728 0 l 4 0 z "},"∏":{"ha":1026,"x_min":32,"x_max":994,"o":"m 32 -283 l 32 -249 l 97 -249 q 168 -89 168 -249 l 168 779 q 97 939 168 939 l 32 939 l 32 972 l 994 972 l 994 939 l 929 939 q 860 779 860 939 l 860 -89 q 929 -249 860 -249 l 994 -249 l 994 -283 l 615 -283 l 615 -249 l 681 -249 q 750 -89 750 -249 l 750 779 q 681 939 750 939 l 347 939 q 278 779 278 939 l 278 -89 q 347 -249 278 -249 l 413 -249 l 413 -283 l 32 -283 z "},"∑":{"ha":818,"x_min":82,"x_max":776,"o":"m 82 -282 l 82 -249 q 153 -212 124 -249 l 603 318 l 153 900 q 82 939 124 939 l 82 972 l 706 972 l 776 815 l 743 815 q 614 939 701 939 l 286 939 l 718 372 l 183 -249 l 614 -249 q 743 -125 701 -249 l 776 -125 l 706 -282 l 82 -282 z "},"−":{"ha":688,"x_min":58,"x_max":629,"o":"m 58 439 l 58 533 l 628 533 l 629 533 l 629 439 l 58 439 z "},"√":{"ha":688,"x_min":11,"x_max":715,"o":"m 11 243 l 61 267 l 119 142 l 613 1139 l 715 1139 l 715 1099 l 665 1099 l 122 0 l 11 243 z "},"∞":{"ha":688,"x_min":44,"x_max":644,"o":"m 471 239 q 378 279 424 239 q 306 411 331 318 q 179 281 263 281 q 128 294 153 281 q 85 335 104 308 q 56 399 67 361 q 44 486 44 438 q 55 567 44 529 q 83 632 65 604 q 126 676 101 660 q 179 693 151 693 q 306 561 268 693 q 326 628 311 596 q 364 683 342 660 q 413 719 386 706 q 471 733 440 733 q 594 663 542 733 q 644 486 644 592 q 590 310 644 381 q 471 239 536 239 m 463 329 q 575 383 518 329 q 632 508 632 438 q 592 608 631 571 q 494 644 554 644 q 389 607 439 644 q 317 465 338 572 q 375 365 322 403 q 463 329 428 329 m 163 354 q 242 385 207 354 q 297 513 276 415 q 259 593 288 569 q 190 617 231 617 q 136 603 161 617 q 93 569 111 590 q 65 522 75 549 q 54 467 54 494 q 83 389 56 424 q 163 354 111 354 z "},"∫":{"ha":451,"x_min":-49,"x_max":492,"o":"m -8 -190 q -49 -171 -49 -190 l -49 -62 l -25 -62 q -1 -107 -22 -93 q 43 -121 22 -121 q 121 -11 99 -121 q 138 97 132 43 q 147 203 144 150 l 196 700 l 201 743 q 292 1033 218 903 q 451 1164 367 1164 q 492 1144 492 1164 l 492 1036 l 467 1036 q 443 1081 467 1065 q 401 1094 421 1094 q 322 989 353 1094 q 289 743 292 885 l 239 222 q 151 -62 226 67 q -8 -190 76 -190 z "},"≈":{"ha":688,"x_min":64,"x_max":626,"o":"m 64 601 q 147 668 107 651 q 225 686 185 686 q 347 653 268 686 q 464 619 426 619 q 538 638 501 619 q 626 714 576 658 l 626 608 q 543 542 582 560 q 464 525 503 525 q 344 558 424 525 q 225 590 264 590 q 151 572 189 590 q 64 496 117 554 l 64 601 m 64 365 q 147 433 107 414 q 225 450 186 450 q 347 417 268 450 q 464 383 426 383 q 538 403 503 383 q 626 478 576 421 l 626 372 q 543 306 582 324 q 464 289 503 289 q 344 322 424 289 q 225 354 264 354 q 151 336 189 354 q 64 260 117 318 l 64 365 z "},"≤":{"ha":507,"x_min":-11,"x_max":560,"o":"m 56 471 l 56 517 l 424 781 l 424 685 l 163 500 l 163 493 l 424 301 l 424 204 l 56 471 l 56 471 m 560 13 l 560 107 l 558 107 l -11 107 l -11 13 l 560 13 z "},"≥":{"ha":507,"x_min":-39,"x_max":532,"o":"m 451 514 l 451 467 l 83 204 l 83 299 l 344 483 l 344 490 l 83 682 l 83 781 l 451 514 l 451 514 m 532 -1 l 532 93 l 531 93 l -39 93 l -39 -1 l 532 -1 z "},"　":{"ha":1010,"x_min":0,"x_max":1010,"o":"m 1010 1 l 872 1 l 786 261 l 783 268 l 710 489 l 685 489 l 619 489 l 597 489 l 489 489 l 474 489 l 310 33 l 299 1 l 264 1 l 263 1 l 275 33 l 439 488 q 137 385 242 476 q 32 131 32 293 q 57 13 32 69 q 124 -89 82 -44 q 217 -160 165 -133 q 324 -189 269 -187 q 424 -180 385 -189 q 489 -154 464 -171 q 531 -115 514 -137 q 563 -64 547 -92 l 603 -64 q 573 -122 592 -93 q 522 -175 554 -151 q 442 -213 490 -199 q 325 -228 394 -228 q 192 -194 251 -228 q 90 -109 132 -161 q 24 6 47 -57 q 0 131 0 69 q 24 283 0 214 q 102 404 49 353 q 242 486 156 456 q 451 521 328 517 l 640 1043 l 661 1043 l 922 261 l 1010 1 m 699 522 l 597 828 l 486 522 l 489 522 l 619 522 l 685 522 l 699 522 z "},"、":{"ha":782,"x_min":0,"x_max":1333,"o":"m 1333 -226 q 1263 -272 1311 -257 q 1163 -294 1214 -287 q 1035 -301 1103 -301 q 897 -278 964 -301 q 774 -215 831 -256 q 674 -118 717 -174 q 608 4 631 -62 l 447 489 l 211 489 l 47 33 l 36 0 l 35 0 l 0 0 l 13 33 l 378 1043 l 399 1043 l 732 38 q 795 -84 754 -29 q 890 -178 836 -139 q 1010 -238 944 -217 q 1144 -260 1075 -260 q 1203 -257 1175 -261 q 1253 -247 1226 -254 q 1303 -224 1281 -239 l 1333 -226 m 436 522 l 335 828 l 224 522 l 436 522 z "},"。":{"ha":881,"x_min":0,"x_max":881,"o":"m 617 535 q 719 487 671 518 q 803 409 768 456 q 860 301 839 363 q 881 164 881 240 q 842 -18 881 65 q 738 -162 803 -101 q 592 -258 674 -224 q 424 -293 510 -293 l 392 -293 q 234 -262 306 -293 q 110 -184 163 -232 q 29 -78 58 -136 q 0 33 0 -21 l 0 65 q 17 157 0 111 q 64 241 33 203 q 136 308 94 279 q 226 350 178 338 l 226 383 l 226 978 l 226 1011 l 324 1011 l 356 1011 l 454 1011 l 535 1011 q 631 992 586 1011 q 708 939 675 972 q 760 861 742 906 q 779 767 779 817 q 779 749 779 757 q 778 732 779 740 q 775 718 775 724 q 773 709 774 714 q 769 699 772 704 q 764 682 767 688 q 758 668 761 674 q 754 659 756 664 q 750 650 753 654 q 747 645 747 647 q 744 640 746 643 q 731 621 739 632 q 728 618 729 619 q 726 615 728 617 q 718 605 722 610 q 708 596 714 600 q 706 593 708 593 q 695 583 700 588 q 685 574 690 578 q 683 572 683 574 q 639 544 661 556 q 626 540 632 542 q 617 535 621 538 m 356 588 l 356 554 l 358 554 l 483 554 q 571 581 531 554 q 585 590 579 586 q 588 592 586 592 q 592 596 589 593 q 607 611 600 603 q 613 617 610 614 q 618 624 615 621 q 621 628 619 626 q 624 633 622 631 q 633 651 629 640 q 636 657 636 654 q 644 683 642 668 q 646 692 646 686 q 650 721 650 706 l 650 813 q 637 877 650 847 q 601 929 624 907 q 548 965 578 951 q 483 978 518 978 l 454 978 l 356 978 l 356 588 m 392 -260 q 531 -240 465 -260 q 644 -175 596 -221 q 722 -54 693 -129 q 750 131 750 21 q 717 315 750 240 q 628 436 683 390 q 503 502 574 482 q 358 522 433 522 l 356 522 l 356 489 l 356 390 l 356 357 q 492 306 438 350 q 571 196 547 263 l 531 196 q 468 277 510 244 q 356 321 426 310 l 356 289 l 356 33 l 358 33 l 358 0 l 356 0 l 226 0 l 226 33 l 226 279 l 226 314 q 158 279 192 301 q 96 226 124 257 q 51 154 68 194 q 33 65 33 114 l 33 33 q 62 -74 33 -21 q 139 -167 90 -126 q 253 -234 188 -208 q 392 -260 318 -260 z "},"〃":{"ha":879,"x_min":0,"x_max":879,"o":"m 521 -256 q 610 -239 564 -256 q 701 -192 657 -222 q 783 -121 744 -161 q 847 -32 821 -81 l 879 -32 q 804 -137 846 -89 q 714 -219 763 -185 q 610 -274 665 -254 q 493 -293 556 -293 q 300 -239 390 -293 q 143 -92 210 -185 q 38 122 76 0 q 0 378 0 243 q 38 628 0 513 q 143 829 76 744 q 300 963 210 914 q 493 1011 390 1011 q 586 998 539 1011 q 679 960 633 985 q 767 901 725 935 q 847 825 810 867 l 847 713 l 847 601 l 814 601 q 756 834 814 742 q 608 956 699 926 q 565 968 589 963 q 521 974 540 974 q 369 928 440 974 q 245 801 299 882 q 160 613 192 721 q 129 378 129 504 q 160 137 129 251 q 245 -65 192 22 q 369 -204 299 -153 q 521 -256 440 -256 z "},"〄":{"ha":976,"x_min":0,"x_max":976,"o":"m 488 1011 q 674 969 585 1011 q 830 851 763 928 q 937 667 897 775 q 976 424 976 558 q 949 201 976 301 q 875 22 921 101 q 769 -117 829 -58 q 643 -215 708 -176 q 513 -274 578 -254 q 390 -293 447 -293 q 233 -262 304 -293 q 110 -184 161 -232 q 29 -78 58 -136 q 0 33 0 -21 l 0 65 q 17 157 0 111 q 64 241 33 203 q 135 308 94 279 q 225 350 176 338 l 225 383 l 225 978 l 225 1011 l 228 1011 l 358 1011 l 488 1011 m 390 -260 q 572 -208 488 -260 q 717 -64 656 -156 q 813 153 778 28 q 847 424 847 278 q 827 607 847 510 q 761 787 807 704 q 641 924 715 869 q 457 978 567 978 l 358 978 l 358 718 l 358 554 l 358 522 l 358 357 q 492 306 438 349 q 569 196 546 263 l 529 196 q 468 277 510 244 q 358 321 426 310 l 358 33 l 358 1 l 358 0 l 356 0 l 225 0 l 225 33 l 225 279 l 225 314 q 156 279 190 301 q 94 226 122 257 q 49 154 67 194 q 32 65 32 114 l 32 33 q 60 -74 32 -21 q 138 -167 89 -126 q 251 -234 186 -208 q 390 -260 317 -260 z "},"々":{"ha":618,"x_min":0,"x_max":1075,"o":"m 1075 -162 q 1015 -210 1050 -187 q 941 -252 981 -233 q 860 -282 901 -271 q 782 -293 818 -293 q 709 -291 750 -293 q 621 -279 668 -289 q 523 -249 574 -269 q 424 -193 472 -229 q 334 -128 378 -158 q 244 -74 290 -97 q 147 -33 199 -50 q 36 -8 96 -17 l 0 0 l 0 33 l 0 978 l 0 1011 l 131 1011 l 554 1011 l 554 978 l 390 978 l 228 978 l 131 978 l 131 554 l 163 554 l 196 554 l 244 554 l 326 554 l 392 554 l 554 554 l 554 522 l 392 522 l 326 522 l 244 522 l 196 522 l 163 522 l 131 522 l 131 489 l 131 424 l 131 164 l 131 33 l 131 0 l 133 0 q 214 -15 172 -8 q 297 -32 256 -22 q 379 -57 339 -42 q 456 -97 419 -72 q 558 -163 517 -133 q 633 -215 599 -193 q 701 -248 667 -236 q 782 -260 735 -260 q 860 -249 819 -260 q 938 -224 901 -239 q 1003 -192 975 -208 q 1043 -162 1031 -175 l 1075 -162 z "},"〆":{"ha":910,"x_min":0,"x_max":910,"o":"m 488 978 l 486 978 l 489 554 l 519 554 l 551 554 l 600 554 l 682 554 l 747 554 l 910 554 l 910 522 l 747 522 l 682 522 l 600 522 l 551 522 l 519 522 l 489 522 l 489 335 q 531 374 514 351 q 563 424 547 396 l 603 424 q 563 353 589 389 q 489 294 538 318 l 489 33 l 489 1 l 356 1 l 356 33 l 356 263 q 341 261 349 261 q 326 261 333 261 q 192 294 253 261 q 90 380 132 328 q 24 495 47 432 q 0 619 0 558 q 30 776 0 704 q 118 901 60 849 q 261 982 176 953 q 457 1011 346 1011 l 910 1011 l 910 978 l 747 978 l 551 978 l 488 978 m 356 968 q 116 852 199 940 q 33 619 33 764 q 58 501 33 558 q 124 400 83 444 q 217 328 165 356 q 324 300 269 301 q 340 300 332 300 q 356 301 349 300 l 356 968 z "},"〇":{"ha":782,"x_min":0,"x_max":782,"o":"m 782 554 l 782 522 l 782 326 l 782 261 l 782 65 l 782 6 q 769 -126 782 -69 q 728 -219 757 -182 q 649 -274 699 -256 q 524 -293 599 -293 q 401 -272 450 -293 q 328 -228 353 -251 l 328 -194 q 357 -219 336 -207 q 402 -240 378 -231 q 451 -254 426 -249 q 492 -260 475 -260 q 558 -244 528 -260 q 609 -206 588 -229 q 642 -153 631 -182 q 654 -97 654 -125 l 651 21 q 559 6 611 13 q 440 0 507 0 q 269 40 349 0 q 129 148 189 79 q 35 309 69 217 q 0 506 0 401 q 35 702 0 610 q 129 863 69 794 q 269 972 189 932 q 440 1011 349 1011 q 528 1005 483 1011 q 613 986 572 999 q 690 956 654 974 q 749 913 725 938 l 749 864 l 749 782 l 710 782 q 651 899 694 849 q 542 968 608 949 q 472 978 511 978 q 339 941 401 978 q 231 840 276 904 q 158 689 185 775 q 131 506 131 603 q 158 322 131 407 q 231 172 185 236 q 339 70 276 107 q 472 33 401 33 q 565 49 518 33 q 651 94 611 65 l 651 138 l 651 261 l 651 522 l 586 522 l 521 522 l 521 554 l 586 554 l 782 554 z "},"〈":{"ha":1075,"x_min":0,"x_max":1075,"o":"m 1075 1011 l 1075 978 l 1075 33 l 1075 0 l 946 0 l 946 33 l 946 424 l 946 489 l 946 522 l 913 522 l 881 522 l 847 522 l 619 522 l 586 522 l 554 522 l 522 522 l 522 489 l 522 424 l 522 33 l 522 0 l 392 0 l 392 33 l 392 515 q 238 469 304 503 q 126 386 171 436 q 57 271 81 336 q 33 131 33 206 q 58 13 33 69 q 124 -89 83 -44 q 217 -160 165 -133 q 324 -189 269 -187 q 424 -180 385 -189 q 489 -154 464 -171 q 531 -115 514 -137 q 563 -64 547 -92 l 603 -64 q 574 -122 592 -93 q 524 -175 556 -151 q 444 -213 492 -199 q 326 -228 396 -228 q 192 -194 253 -228 q 90 -109 132 -161 q 24 6 47 -57 q 0 131 0 69 q 26 281 0 210 q 101 410 51 353 q 224 503 151 467 q 392 551 297 540 l 392 978 l 392 1011 l 522 1011 l 522 978 l 522 685 l 522 554 l 554 554 l 586 554 l 619 554 l 847 554 l 881 554 l 913 554 l 946 554 l 946 685 l 946 978 l 946 1011 l 1075 1011 z "},"〉":{"ha":131,"x_min":0,"x_max":131,"o":"m 131 33 l 131 0 l 0 0 l 0 33 l 0 978 l 0 1011 l 131 1011 l 131 978 l 131 653 l 131 554 l 131 522 l 131 489 l 131 424 l 131 33 l 131 33 z "},"【":{"ha":815,"x_min":0,"x_max":815,"o":"m 815 1011 l 815 978 l 815 847 l 815 653 l 815 554 l 815 522 l 815 489 l 815 326 l 815 164 q 790 -4 815 78 q 709 -150 764 -86 q 567 -253 654 -214 q 358 -293 481 -293 q 220 -260 285 -293 q 106 -174 156 -226 q 28 -59 57 -122 q 0 65 0 4 q 30 223 0 151 q 118 347 60 294 q 262 428 176 399 q 457 457 347 457 l 457 424 q 281 400 358 424 q 147 331 203 376 q 63 218 92 285 q 33 65 33 151 q 66 -54 33 4 q 147 -158 99 -112 q 253 -232 196 -204 q 358 -260 310 -260 q 506 -226 444 -260 q 608 -133 568 -192 q 666 1 647 -75 q 685 164 685 78 l 685 326 l 685 489 l 685 750 l 685 978 l 685 1011 l 815 1011 z "},"】":{"ha":860,"x_min":0,"x_max":1451,"o":"m 1451 -162 q 1392 -210 1426 -187 q 1317 -252 1357 -233 q 1237 -282 1278 -271 q 1158 -293 1196 -293 q 1072 -287 1118 -293 q 972 -261 1025 -282 q 858 -199 918 -240 q 727 -85 797 -157 q 578 96 657 -12 q 410 360 499 204 l 263 610 l 131 472 l 131 424 l 131 294 l 131 33 l 131 0 l 0 0 l 0 33 l 0 338 l 0 385 l 0 978 l 0 1011 l 131 1011 l 131 978 l 131 815 l 131 653 l 131 554 l 131 522 l 131 519 l 569 978 l 600 1011 l 601 1011 l 646 1011 l 647 1011 l 615 978 l 522 882 l 522 881 l 357 710 l 540 392 q 703 128 629 238 q 839 -53 778 19 q 949 -167 900 -125 q 1036 -228 997 -208 q 1105 -254 1075 -249 q 1158 -260 1135 -260 q 1237 -249 1196 -260 q 1315 -224 1278 -239 q 1379 -192 1351 -208 q 1419 -162 1407 -175 l 1451 -162 z "},"〒":{"ha":489,"x_min":0,"x_max":1075,"o":"m 1075 -162 q 1015 -210 1050 -187 q 941 -252 981 -233 q 860 -282 901 -271 q 782 -293 818 -293 q 709 -291 750 -293 q 621 -279 668 -289 q 523 -249 574 -269 q 424 -193 472 -229 q 334 -128 378 -158 q 244 -74 290 -97 q 147 -33 199 -50 q 36 -8 96 -17 l 0 0 l 0 33 l 0 294 l 0 1011 l 131 1011 l 131 978 l 131 653 l 131 554 l 131 522 l 131 489 l 131 424 l 131 294 l 131 164 l 131 33 l 131 0 l 132 0 q 214 -15 172 -8 q 297 -32 256 -22 q 379 -57 339 -42 q 456 -97 419 -72 q 558 -163 517 -133 q 633 -215 599 -193 q 701 -248 667 -236 q 782 -260 735 -260 q 860 -249 819 -260 q 938 -224 901 -239 q 1003 -192 975 -208 q 1043 -162 1031 -175 l 1075 -162 z "},"〓":{"ha":878,"x_min":0,"x_max":1238,"o":"m 1238 -187 q 1174 -230 1211 -210 q 1096 -265 1138 -250 q 1013 -287 1054 -279 q 933 -292 971 -294 q 847 -278 893 -287 q 750 -244 801 -269 q 642 -171 699 -218 q 522 -45 585 -124 q 390 148 460 33 q 246 425 321 263 l 32 913 l 33 914 l 32 917 l 32 913 l 32 326 l 32 33 l 32 0 l 0 0 l 0 33 l 0 978 l 0 1011 l 32 1011 l 97 1011 l 131 1011 l 132 1011 l 149 968 l 379 446 q 392 417 386 431 q 406 390 399 404 l 694 1011 l 731 1011 l 814 1011 l 814 978 l 814 653 l 814 554 l 814 522 l 814 489 l 814 424 l 814 33 l 814 0 l 683 0 l 683 33 l 683 326 l 683 908 l 431 360 l 431 358 l 425 347 q 551 110 493 208 q 659 -56 610 11 q 750 -162 708 -122 q 826 -222 792 -201 q 888 -251 860 -243 q 938 -260 915 -258 q 1017 -256 975 -262 q 1096 -237 1058 -249 q 1163 -210 1133 -225 q 1206 -185 1192 -196 l 1238 -187 z "},"〔":{"ha":856,"x_min":0,"x_max":1368,"o":"m 1368 -187 q 1304 -231 1342 -210 q 1225 -268 1267 -253 q 1142 -291 1183 -283 q 1064 -292 1100 -299 q 980 -277 1021 -285 q 891 -245 939 -269 q 785 -169 843 -221 q 651 -24 728 -118 l 651 -32 l 625 8 q 415 308 535 124 q 136 772 296 493 l 32 935 l 32 392 l 32 33 l 32 1 l 0 1 l 0 33 l 0 978 l 0 1011 l 32 1011 l 138 1011 l 590 274 q 604 253 597 263 q 618 233 611 244 l 618 815 l 618 978 l 618 1011 l 651 1011 l 651 978 l 651 718 l 651 194 l 651 186 q 897 -129 790 -12 q 1067 -260 1003 -246 q 1146 -260 1104 -267 q 1225 -241 1188 -254 q 1292 -212 1263 -228 q 1335 -185 1322 -196 l 1368 -187 z "},"〕":{"ha":1010,"x_min":0,"x_max":1010,"o":"m 504 1011 q 701 972 608 1011 q 862 863 793 932 q 970 702 931 794 q 1010 506 1010 610 q 970 309 1010 401 q 862 149 931 217 q 701 41 793 81 q 504 1 608 1 q 308 41 400 1 q 147 149 215 81 q 40 309 79 217 q 0 506 0 401 q 40 702 0 610 q 147 863 79 794 q 308 972 215 932 q 504 1011 400 1011 m 504 33 q 650 70 582 33 q 769 172 718 107 q 850 322 821 236 q 879 506 879 407 q 850 689 879 603 q 769 840 821 775 q 650 941 718 904 q 504 978 582 978 q 358 941 426 978 q 239 840 290 904 q 158 689 188 775 q 129 506 129 603 q 158 322 129 407 q 239 172 188 236 q 358 70 290 107 q 504 33 426 33 m 504 636 l 592 506 l 504 375 l 418 506 l 504 636 z "},"〖":{"ha":1043,"x_min":0,"x_max":1043,"o":"m 733 1011 q 853 987 797 1011 q 952 920 910 963 q 1019 822 994 878 q 1043 701 1043 765 q 1019 581 1043 638 q 952 483 994 525 q 853 416 910 440 q 733 392 797 392 l 554 392 l 554 360 l 554 33 l 554 1 l 424 1 l 424 33 l 424 975 q 133 870 233 961 q 33 619 33 779 q 55 509 33 563 q 113 413 76 456 q 197 340 150 369 q 293 303 243 311 l 293 264 q 173 306 226 271 q 81 392 119 342 q 21 502 42 442 q 0 619 0 563 q 28 771 0 701 q 110 892 56 840 q 242 974 164 943 q 424 1010 321 1006 l 424 1011 l 457 1011 l 554 1011 l 733 1011 m 913 746 q 894 835 913 793 q 844 910 876 878 q 770 960 813 942 q 679 978 728 978 l 554 978 l 554 522 l 554 489 l 554 424 l 679 424 q 770 442 728 424 q 844 492 813 461 q 894 566 876 524 q 913 657 913 608 l 913 746 z "},"〗":{"ha":1071,"x_min":0,"x_max":1499,"o":"m 1499 -162 q 1439 -210 1474 -187 q 1365 -252 1404 -233 q 1283 -282 1325 -271 q 1206 -293 1242 -293 q 1132 -291 1174 -293 q 1043 -279 1090 -289 q 946 -249 996 -269 q 847 -193 896 -229 q 751 -126 803 -158 q 641 -66 699 -93 q 524 -19 583 -39 q 406 11 464 1 l 401 11 q 399 12 400 11 q 396 13 397 13 q 239 76 311 31 q 113 188 167 122 q 30 334 60 253 q 0 506 0 415 q 40 702 0 610 q 148 863 79 794 q 308 972 217 932 q 504 1011 400 1011 q 701 972 608 1011 q 862 863 793 932 q 970 702 931 794 q 1010 506 1010 610 q 974 320 1010 407 q 878 166 939 233 q 734 56 817 99 q 556 3 651 13 q 637 -12 594 -6 q 721 -31 679 -19 q 803 -57 763 -42 q 879 -97 843 -72 q 981 -163 940 -133 q 1056 -215 1022 -193 q 1124 -248 1090 -236 q 1206 -260 1158 -260 q 1284 -249 1243 -260 q 1361 -224 1325 -239 q 1425 -192 1397 -208 q 1465 -162 1453 -175 l 1499 -162 m 131 506 q 160 322 131 407 q 240 172 189 236 q 358 70 290 107 q 504 33 426 33 q 650 70 582 33 q 769 172 718 107 q 850 322 821 236 q 879 506 879 407 q 850 689 879 603 q 769 840 821 775 q 650 941 718 904 q 504 978 582 978 q 358 941 426 978 q 240 840 290 904 q 160 689 189 775 q 131 506 131 603 z "},"〘":{"ha":769,"x_min":0,"x_max":1354,"o":"m 1354 -162 q 1294 -210 1329 -187 q 1220 -252 1260 -233 q 1139 -282 1181 -271 q 1061 -293 1097 -293 q 975 -287 1021 -293 q 876 -262 929 -282 q 764 -201 824 -242 q 635 -91 704 -161 q 489 84 567 -21 q 324 339 411 189 l 288 392 l 131 392 l 131 360 l 131 33 l 131 1 l 0 1 l 0 33 l 0 978 l 0 1011 l 33 1011 l 131 1011 l 310 1011 q 430 987 374 1011 q 528 920 486 963 q 595 822 571 878 q 619 701 619 765 q 606 609 619 653 q 566 528 592 565 q 505 462 540 490 q 428 415 469 433 l 442 392 q 450 378 446 385 q 458 365 454 372 l 622 106 q 780 -97 711 -24 q 902 -206 849 -169 q 994 -251 956 -242 q 1061 -260 1032 -260 q 1140 -249 1099 -260 q 1217 -224 1181 -239 q 1282 -192 1254 -208 q 1322 -162 1310 -175 l 1354 -162 m 257 424 q 347 442 304 424 q 421 492 389 461 q 471 566 453 524 q 489 657 489 608 l 489 746 q 471 835 489 793 q 421 910 453 878 q 347 960 389 942 q 257 978 304 978 l 131 978 l 131 522 l 131 489 l 131 424 l 257 424 z "},"〙":{"ha":881,"x_min":0,"x_max":881,"o":"m 586 554 q 698 490 644 526 q 792 407 751 454 q 856 300 832 360 q 881 164 881 240 q 841 -18 881 65 q 738 -162 801 -101 q 591 -258 674 -224 q 424 -293 508 -293 l 392 -293 q 234 -262 306 -293 q 110 -184 163 -232 q 29 -78 58 -136 q 0 33 0 -21 l 0 65 q 19 163 0 111 q 76 258 39 215 q 169 331 114 301 q 293 360 224 360 q 399 347 353 360 q 480 310 446 333 q 536 258 514 288 q 569 196 558 229 l 531 196 q 500 244 519 221 q 451 285 481 267 q 382 316 421 304 q 294 328 343 328 q 196 303 243 326 q 113 244 149 281 q 55 160 76 207 q 33 65 33 114 l 33 33 q 62 -74 33 -21 q 139 -167 90 -126 q 253 -234 188 -208 q 392 -260 318 -260 q 531 -240 465 -260 q 644 -175 596 -221 q 722 -54 693 -129 q 750 131 750 21 q 729 238 750 189 q 673 326 708 286 q 590 397 638 365 q 492 456 543 429 q 489 457 490 456 q 403 508 440 482 q 342 567 367 533 q 306 644 318 600 q 293 750 293 689 q 310 843 293 797 q 358 926 328 889 q 428 987 388 964 q 517 1011 469 1010 q 564 1010 535 1011 q 626 1003 593 1010 q 692 984 660 997 q 750 946 725 971 l 750 750 l 717 750 q 704 840 717 799 q 667 913 692 882 q 607 960 643 943 q 522 978 571 978 q 429 933 467 978 q 392 815 392 889 q 394 747 392 779 q 416 685 397 715 q 474 623 435 654 q 586 554 513 592 z "},"〠":{"ha":1172,"x_min":0,"x_max":1172,"o":"m 1172 1011 l 1172 978 l 965 978 l 913 978 l 847 978 l 847 913 l 847 588 l 847 522 l 847 489 l 847 457 l 847 360 l 847 33 l 847 1 l 717 1 l 717 33 l 717 619 l 717 978 l 685 978 l 619 978 l 599 978 l 489 978 q 150 885 268 978 q 32 619 32 792 q 57 501 32 558 q 124 400 82 444 q 217 328 165 356 q 324 300 269 301 q 424 309 385 300 q 489 335 464 318 q 531 374 514 351 q 563 424 547 396 l 603 424 q 573 367 592 396 q 523 314 554 338 q 444 276 492 290 q 326 261 396 261 q 192 294 253 261 q 90 380 132 328 q 24 495 47 432 q 0 619 0 558 q 26 766 0 699 q 101 884 51 833 q 223 967 150 935 q 390 1007 296 999 l 390 1011 l 619 1011 l 717 1011 l 782 1011 l 814 1011 l 847 1011 l 1172 1011 z "},"〡":{"ha":1092,"x_min":0,"x_max":1092,"o":"m 1092 1011 l 1092 978 l 1092 653 l 1092 360 q 1014 94 1092 188 q 765 1 936 1 q 645 16 703 1 q 541 63 588 31 q 461 144 494 94 q 415 267 428 194 q 372 263 394 264 q 326 261 350 261 q 192 294 253 261 q 90 380 132 328 q 24 495 47 432 q 0 619 0 558 q 26 769 0 700 q 105 888 53 838 q 233 970 157 939 q 407 1008 308 1001 l 407 1011 l 538 1011 l 538 978 l 538 782 l 538 360 q 538 347 538 353 q 539 336 538 342 q 597 375 574 353 q 635 424 619 397 l 668 424 q 624 359 656 392 q 540 301 593 326 q 573 170 547 222 q 635 88 599 118 q 715 45 672 57 q 799 33 757 33 q 894 52 847 33 q 977 110 940 71 q 1036 212 1014 150 q 1058 360 1058 274 l 1058 653 l 1058 978 l 1058 1011 l 1092 1011 m 324 300 q 369 299 347 299 q 410 303 390 300 q 408 331 408 317 q 407 360 407 344 l 407 782 l 407 974 q 129 866 225 957 q 33 619 33 775 q 58 501 33 558 q 124 401 83 444 q 217 329 165 357 q 324 300 269 301 z "},"〢":{"ha":1235,"x_min":0,"x_max":1235,"o":"m 1235 1010 l 1224 978 l 949 219 l 947 219 l 857 -32 l 836 -32 l 768 169 q 717 318 743 239 q 660 496 692 397 l 569 765 l 571 765 l 499 978 l 492 1001 q 388 1167 436 1118 q 299 1229 339 1217 q 205 1248 247 1244 q 129 1248 163 1251 q 71 1236 96 1244 q 31 1219 46 1228 l 0 1231 q 74 1256 31 1246 q 165 1269 118 1265 q 259 1270 213 1274 q 343 1254 306 1267 q 411 1226 376 1243 q 481 1181 446 1208 q 551 1113 517 1154 q 617 1013 585 1072 l 618 1011 q 641 956 625 996 q 672 874 657 917 q 711 765 690 824 q 746 653 729 707 q 779 546 763 600 l 900 183 l 1057 618 l 1057 619 l 1188 978 l 1186 978 l 1197 1011 l 1199 1011 l 1200 1011 l 1233 1011 l 1235 1011 l 1235 1010 z "},"〣":{"ha":1290,"x_min":0,"x_max":1463,"o":"m 1463 -229 q 1388 -254 1431 -244 q 1297 -267 1344 -264 q 1203 -267 1250 -271 q 1119 -251 1157 -264 q 1051 -224 1086 -240 q 981 -179 1017 -207 q 911 -110 946 -151 q 844 -8 876 -68 l 843 -8 q 813 56 828 22 q 783 131 797 90 q 719 314 751 214 q 643 546 686 414 l 435 -32 l 414 -32 l 75 978 l 64 1011 l 201 1011 l 213 978 l 478 183 l 626 596 l 614 633 l 499 978 l 492 1001 q 388 1167 436 1118 q 299 1229 339 1217 q 205 1248 247 1244 q 129 1248 163 1251 q 71 1236 96 1244 q 31 1219 46 1228 l 0 1231 q 74 1256 31 1246 q 165 1269 118 1265 q 259 1270 213 1274 q 343 1254 306 1267 q 411 1226 376 1243 q 481 1181 446 1208 q 550 1113 515 1154 q 617 1013 585 1072 l 618 1011 q 649 947 633 981 q 679 872 664 913 q 691 840 686 857 q 703 807 696 824 l 765 978 l 776 1011 l 811 1011 l 799 978 l 719 758 q 799 517 756 653 q 906 194 842 382 l 1189 978 l 1200 1011 l 1235 1011 l 1222 978 l 922 144 q 945 74 933 110 q 971 1 957 39 q 1024 -98 999 -57 q 1074 -166 1050 -139 q 1121 -208 1099 -193 q 1164 -228 1143 -222 q 1258 -247 1215 -243 q 1333 -246 1300 -250 q 1392 -233 1367 -242 q 1432 -218 1417 -225 l 1463 -229 z "},"〤":{"ha":1258,"x_min":0,"x_max":1674,"o":"m 1674 -107 q 1604 -143 1646 -126 q 1517 -171 1563 -160 q 1424 -186 1471 -182 q 1339 -183 1378 -190 q 1267 -167 1304 -178 q 1191 -133 1231 -156 q 1111 -76 1151 -111 q 1029 13 1071 -42 l 1028 14 q 988 72 1008 40 q 947 140 967 103 q 876 267 913 200 q 799 418 840 335 l 528 31 l 506 -1 l 465 -1 l 489 31 l 782 451 q 763 490 772 471 q 743 528 754 508 l 719 575 q 701 610 710 589 l 532 932 l 521 953 q 453 1043 485 1007 q 392 1101 421 1079 q 340 1134 364 1124 q 296 1147 317 1144 q 199 1151 242 1154 q 124 1138 157 1147 q 69 1117 92 1129 q 32 1096 46 1106 l 0 1101 q 69 1138 28 1121 q 157 1165 111 1154 q 249 1180 203 1176 q 335 1178 296 1183 q 406 1162 369 1172 q 482 1129 443 1151 q 561 1072 521 1107 q 643 985 601 1038 l 644 983 q 686 924 665 956 q 726 856 707 893 q 744 826 735 840 q 761 796 753 811 l 785 750 q 827 671 806 713 q 872 582 849 629 l 1146 974 l 1168 1007 l 1208 1007 l 1186 974 l 889 549 q 966 399 925 479 q 1057 222 1007 319 l 1082 176 q 1116 111 1099 144 q 1153 43 1133 78 q 1221 -47 1189 -11 q 1281 -106 1253 -83 q 1334 -138 1310 -128 q 1379 -151 1358 -149 q 1474 -156 1432 -160 q 1549 -144 1517 -153 q 1605 -122 1582 -135 q 1642 -100 1628 -110 l 1674 -107 z "},"〥":{"ha":1279,"x_min":0,"x_max":1279,"o":"m 1279 1011 l 1256 978 l 956 522 l 956 489 l 956 457 l 956 360 l 956 33 l 956 1 l 825 1 l 825 33 l 825 522 q 767 611 796 568 q 703 704 738 654 q 623 816 668 754 q 517 963 578 878 q 435 1056 471 1022 q 370 1106 399 1090 q 319 1126 342 1122 q 276 1129 297 1129 q 185 1122 225 1131 q 115 1100 144 1113 q 65 1072 85 1088 q 32 1046 44 1057 l 0 1049 q 63 1092 25 1071 q 142 1131 100 1114 q 229 1156 185 1147 q 311 1164 274 1165 q 381 1156 344 1163 q 458 1132 418 1149 q 540 1085 497 1115 q 629 1008 583 1056 l 629 1007 q 725 889 676 957 q 806 774 764 836 q 896 636 847 711 l 944 571 l 1217 978 l 1239 1011 l 1279 1011 z "},"〦":{"ha":714,"x_min":0,"x_max":1172,"o":"m 1172 -129 q 1108 -194 1147 -164 q 1022 -246 1068 -224 q 930 -281 976 -268 q 847 -293 883 -293 q 774 -291 815 -293 q 686 -279 733 -289 q 588 -249 639 -269 q 489 -193 538 -229 q 279 -69 397 -122 q 40 1 161 -17 l 433 978 l 231 978 l 174 978 l 0 978 l 0 1011 l 33 1011 l 446 1011 l 554 1011 l 586 1011 l 275 235 l 182 1 q 267 -14 222 -7 q 356 -31 311 -21 q 442 -57 400 -42 q 522 -97 485 -72 q 624 -163 583 -133 q 698 -215 664 -193 q 766 -248 732 -236 q 847 -260 800 -260 q 1001 -229 924 -260 q 1142 -131 1078 -199 l 1172 -129 z "},"\"":{"ha":446,"x_min":69,"x_max":376,"o":"m 157 807 q 149 806 157 806 q 133 806 142 806 q 118 806 125 806 q 111 808 111 807 q 90 922 99 872 q 76 1001 83 965 q 71 1039 69 1036 l 207 1038 q 205 1026 207 1036 q 199 999 203 1015 q 191 961 196 982 q 182 919 186 940 q 157 807 171 869 m 326 807 q 319 806 326 806 q 303 806 311 806 q 288 806 294 806 q 281 808 281 807 q 260 922 268 872 q 247 1001 253 965 q 240 1039 240 1036 l 376 1038 q 374 1026 376 1036 q 369 999 372 1015 q 360 961 365 982 q 351 919 356 940 q 326 807 340 869 z "},"!":{"ha":269,"x_min":69,"x_max":200,"o":"m 69 -4 l 69 126 l 200 126 l 200 -4 l 69 -4 m 69 1006 l 200 1006 l 168 257 l 103 257 l 69 1006 z "}}}
